<?xml version="1.0" encoding="UTF-8" standalone="no"?>
<!-- Created with Inkscape (http://www.inkscape.org/) -->

<svg
   width="128"
   height="128"
   viewBox="0 0 33.866666 33.866666"
   version="1.1"
   id="svg135"
   xml:space="preserve"
   inkscape:version="1.2 (dc2aedaf03, 2022-05-15)"
   sodipodi:docname="ball_ico.svg"
   inkscape:export-filename="ball.png"
   inkscape:export-xdpi="96"
   inkscape:export-ydpi="96"
   xmlns:inkscape="http://www.inkscape.org/namespaces/inkscape"
   xmlns:sodipodi="http://sodipodi.sourceforge.net/DTD/sodipodi-0.dtd"
   xmlns="http://www.w3.org/2000/svg"
   xmlns:svg="http://www.w3.org/2000/svg"><sodipodi:namedview
     id="namedview137"
     pagecolor="#ffffff"
     bordercolor="#000000"
     borderopacity="0.25"
     inkscape:showpageshadow="2"
     inkscape:pageopacity="0.0"
     inkscape:pagecheckerboard="0"
     inkscape:deskcolor="#d1d1d1"
     inkscape:document-units="mm"
     showgrid="false"
     inkscape:zoom="1.829812"
     inkscape:cx="-227.07251"
     inkscape:cy="-21.586917"
     inkscape:window-width="3840"
     inkscape:window-height="2066"
     inkscape:window-x="-8"
     inkscape:window-y="-8"
     inkscape:window-maximized="1"
     inkscape:current-layer="layer1" /><defs
     id="defs132"><inkscape:path-effect
       effect="spiro"
       id="path-effect2209"
       is_visible="true"
       lpeversion="1" /><inkscape:path-effect
       effect="spiro"
       id="path-effect2205"
       is_visible="true"
       lpeversion="1" /><inkscape:path-effect
       effect="bspline"
       id="path-effect1304"
       is_visible="true"
       lpeversion="1"
       weight="33.333333"
       steps="2"
       helper_size="0"
       apply_no_weight="true"
       apply_with_weight="true"
       only_selected="false" /><inkscape:path-effect
       effect="bspline"
       id="path-effect1243"
       is_visible="true"
       lpeversion="1"
       weight="33.333333"
       steps="2"
       helper_size="0"
       apply_no_weight="true"
       apply_with_weight="true"
       only_selected="false" /><inkscape:path-effect
       effect="bspline"
       id="path-effect1237"
       is_visible="true"
       lpeversion="1"
       weight="33.333333"
       steps="2"
       helper_size="0"
       apply_no_weight="true"
       apply_with_weight="true"
       only_selected="false" /><inkscape:path-effect
       effect="bspline"
       id="path-effect1233"
       is_visible="true"
       lpeversion="1"
       weight="33.333333"
       steps="2"
       helper_size="0"
       apply_no_weight="true"
       apply_with_weight="true"
       only_selected="false" /><clipPath
       clipPathUnits="userSpaceOnUse"
       id="clipPath1096"><rect
         style="fill:#5c5c5c;fill-opacity:0.129568;fill-rule:evenodd;stroke:#000000;stroke-width:0.12758;stroke-dasharray:none"
         id="rect1098"
         width="81.235321"
         height="131.84389"
         x="124.65547"
         y="19.968023" /></clipPath></defs><g
     inkscape:label="Vrstva 1"
     inkscape:groupmode="layer"
     id="layer1"><path
       style="fill:#000000;stroke-width:0.0368573"
       d="M 16.020005,26.591533 C 15.725572,26.562518 14.907253,26.42175 14.619426,26.350607 11.339227,25.539809 8.6969398,23.054494 7.6892804,19.832162 7.3579546,18.772635 7.2464448,17.910315 7.2770082,16.644002 7.3091711,15.311358 7.5374851,14.268954 8.0600606,13.06884 8.5662092,11.90645 9.1714533,11.0293 10.120603,10.0826 c 1.42133,-1.4176623 3.134538,-2.3154152 5.099239,-2.6720967 1.309587,-0.2377492 2.881435,-0.1758598 4.182744,0.1646897 3.424366,0.8961497 6.126626,3.655285 6.950647,7.096942 0.203358,0.849354 0.241946,1.214871 0.241255,2.285154 -5.57e-4,0.888557 -0.01102,1.072678 -0.0847,1.492723 -0.298304,1.700631 -0.864006,3.015579 -1.890754,4.394978 -0.476528,0.640197 -1.477811,1.592296 -2.185852,2.07848 -0.468862,0.321951 -1.296169,0.770334 -1.807379,0.979562 -0.617288,0.252644 -1.380533,0.468126 -2.136356,0.603144 -0.360067,0.06432 -0.617008,0.08095 -1.382151,0.08945 -0.516924,0.0058 -1.006205,0.0039 -1.087291,-0.0041 z m 2.027154,-0.681785 c 0.697694,-0.08731 1.492857,-0.286563 2.129377,-0.533585 0.363911,-0.141227 1.128016,-0.502865 1.279927,-0.60577 0.05068,-0.03433 0.208244,-0.134672 0.350145,-0.222981 0.26462,-0.164681 0.285175,-0.179057 0.663432,-0.46397 0.460256,-0.346678 1.243011,-1.122674 1.556294,-1.542856 0.0451,-0.06049 0.145089,-0.19291 0.222197,-0.294268 0.749523,-0.985241 1.331668,-2.364096 1.595002,-3.777878 0.09917,-0.532444 0.140731,-1.850568 0.07741,-2.455191 C 25.805556,14.91159 25.523555,13.950252 25.013974,12.921411 23.735638,10.340463 21.331022,8.5501518 18.45259,8.0362559 17.834886,7.9259754 16.614595,7.8902942 16.431537,7.9771576 c -0.179418,0.08514 -1.457407,0.2655178 -1.535532,0.2167279 -0.08832,-0.055153 -0.745019,0.12897 -1.346697,0.3775867 -0.762951,0.3152543 -1.383443,0.6590301 -1.915327,1.0611598 -0.101358,0.076631 -0.233778,0.1762295 -0.294268,0.2213302 -0.441734,0.3293528 -1.3458284,1.2503688 -1.6056373,1.6356898 -0.029442,0.04367 -0.1320538,0.189213 -0.2280234,0.323434 -0.9076267,1.269393 -1.4711523,2.9017 -1.5770869,4.568187 -0.1444355,2.272168 0.5770843,4.522229 2.0107344,6.270473 1.3728492,1.674103 3.2518442,2.779624 5.4168732,3.187062 0.746651,0.140512 1.89307,0.170737 2.690586,0.07093 z M 13.45004,23.93973 c -0.811847,-0.1968 -1.495855,-0.932014 -1.354723,-1.456139 0.157291,-0.584133 1.294341,-0.440779 1.969242,0.248272 0.363268,0.370885 0.475001,0.81963 0.259964,1.044081 -0.113898,0.118884 -0.375995,0.222751 -0.550168,0.218027 -0.06227,-0.0017 -0.208213,-0.0261 -0.324315,-0.05424 z m 6.115087,-0.383257 c -0.162858,-0.05256 -0.359903,-0.2209 -0.416159,-0.355539 -0.07376,-0.176541 -0.0634,-0.422036 0.02818,-0.667589 0.09958,-0.266997 0.463129,-0.640718 0.790386,-0.812503 0.439656,-0.230784 0.967953,-0.286508 1.285893,-0.135636 0.443957,0.210671 0.474109,0.801853 0.06628,1.299554 -0.166149,0.202763 -0.516586,0.464494 -0.784681,0.586055 -0.155336,0.07044 -0.280245,0.0951 -0.534431,0.105529 -0.182445,0.0075 -0.378406,-0.0014 -0.435471,-0.01987 z M 9.4385857,18.212292 C 9.2857256,18.130478 9.1479799,17.94317 9.0306515,17.657579 c -0.07117,-0.173241 -0.083305,-0.2697 -0.083447,-0.663433 -1.396e-4,-0.382964 0.013439,-0.49758 0.080439,-0.679155 0.203219,-0.550714 0.5273993,-0.74616 0.8578227,-0.517177 0.4770368,0.330587 0.5947368,1.568618 0.2042158,2.148055 -0.1902261,0.282249 -0.434655,0.382268 -0.6510963,0.266423 z m 6.5814193,-0.554084 c -0.486512,-0.106563 -0.816224,-0.325365 -1.090069,-0.723383 -0.267726,-0.389127 -0.336195,-0.967404 -0.169059,-1.427856 0.467036,-1.28667 2.168528,-1.500375 2.920911,-0.366862 0.394296,0.594031 0.347191,1.378296 -0.11719,1.951131 -0.333026,0.410801 -1.052259,0.674809 -1.544593,0.56697 z m 7.445183,-0.991023 c -0.34117,-0.155837 -0.631195,-0.61902 -0.7388,-1.179898 -0.05803,-0.302461 -0.06054,-0.381073 -0.02008,-0.626574 0.160055,-0.970876 0.950901,-1.055754 1.474858,-0.158289 0.325259,0.557123 0.33936,1.321592 0.0326,1.76745 -0.178982,0.260142 -0.452944,0.332352 -0.748585,0.197311 z M 11.283836,11.502402 c -0.103088,-0.103088 -0.09962,-0.372392 0.0071,-0.548509 0.320408,-0.528941 0.96503,-0.9891396 1.485451,-1.0604714 0.209274,-0.028687 0.411164,0.06575 0.442146,0.2068084 0.06787,0.309006 -0.260459,0.797905 -0.773654,1.152014 -0.428868,0.295921 -0.993568,0.417596 -1.161006,0.250158 z m 7.51152,-1.109741 c -0.710473,-0.07266 -1.301058,-0.4855246 -1.301058,-0.9095459 0,-0.1400597 0.01753,-0.1780064 0.122806,-0.2658975 0.258409,-0.2157294 0.734855,-0.2732082 1.230099,-0.148401 0.64735,0.1631407 1.098109,0.5153111 1.098109,0.8579359 0,0.1156515 -0.02509,0.1706725 -0.122012,0.2675975 -0.183964,0.183963 -0.524967,0.249749 -1.027944,0.198311 z"
       id="path3610" /></g></svg>
