<?xml version="1.0" encoding="UTF-8" standalone="no"?>
<!-- Created with Inkscape (http://www.inkscape.org/) -->

<svg
   width="128"
   height="128"
   viewBox="0 0 33.866666 33.866666"
   version="1.1"
   id="svg135"
   xml:space="preserve"
   inkscape:version="1.2 (dc2aedaf03, 2022-05-15)"
   sodipodi:docname="cone.svg"
   inkscape:export-filename="..\cone.png"
   inkscape:export-xdpi="96"
   inkscape:export-ydpi="96"
   xmlns:inkscape="http://www.inkscape.org/namespaces/inkscape"
   xmlns:sodipodi="http://sodipodi.sourceforge.net/DTD/sodipodi-0.dtd"
   xmlns="http://www.w3.org/2000/svg"
   xmlns:svg="http://www.w3.org/2000/svg"><sodipodi:namedview
     id="namedview137"
     pagecolor="#ffffff"
     bordercolor="#000000"
     borderopacity="0.25"
     inkscape:showpageshadow="2"
     inkscape:pageopacity="0.0"
     inkscape:pagecheckerboard="0"
     inkscape:deskcolor="#d1d1d1"
     inkscape:document-units="mm"
     showgrid="false"
     inkscape:zoom="7.319248"
     inkscape:cx="-37.708792"
     inkscape:cy="128.08693"
     inkscape:window-width="3840"
     inkscape:window-height="2066"
     inkscape:window-x="-8"
     inkscape:window-y="-8"
     inkscape:window-maximized="1"
     inkscape:current-layer="layer1" /><defs
     id="defs132"><inkscape:path-effect
       effect="spiro"
       id="path-effect2209"
       is_visible="true"
       lpeversion="1" /><inkscape:path-effect
       effect="spiro"
       id="path-effect2205"
       is_visible="true"
       lpeversion="1" /><inkscape:path-effect
       effect="bspline"
       id="path-effect1304"
       is_visible="true"
       lpeversion="1"
       weight="33.333333"
       steps="2"
       helper_size="0"
       apply_no_weight="true"
       apply_with_weight="true"
       only_selected="false" /><inkscape:path-effect
       effect="bspline"
       id="path-effect1243"
       is_visible="true"
       lpeversion="1"
       weight="33.333333"
       steps="2"
       helper_size="0"
       apply_no_weight="true"
       apply_with_weight="true"
       only_selected="false" /><inkscape:path-effect
       effect="bspline"
       id="path-effect1237"
       is_visible="true"
       lpeversion="1"
       weight="33.333333"
       steps="2"
       helper_size="0"
       apply_no_weight="true"
       apply_with_weight="true"
       only_selected="false" /><inkscape:path-effect
       effect="bspline"
       id="path-effect1233"
       is_visible="true"
       lpeversion="1"
       weight="33.333333"
       steps="2"
       helper_size="0"
       apply_no_weight="true"
       apply_with_weight="true"
       only_selected="false" /><clipPath
       clipPathUnits="userSpaceOnUse"
       id="clipPath1096"><rect
         style="fill:#5c5c5c;fill-opacity:0.129568;fill-rule:evenodd;stroke:#000000;stroke-width:0.12758;stroke-dasharray:none"
         id="rect1098"
         width="81.235321"
         height="131.84389"
         x="124.65547"
         y="19.968023" /></clipPath></defs><g
     inkscape:label="Vrstva 1"
     inkscape:groupmode="layer"
     id="layer1"><g
       inkscape:label="Lines of Longitude"
       id="g3298"
       transform="matrix(0.50271508,0,0,0.50271508,16.933333,16.933333)"
       style="display:none"><path
         style="color:#000000;fill:#000000;-inkscape-stroke:none"
         d="m 0,-21.298828 c -1.6062411,0 -3.1325899,1.043139 -4.4433594,2.890625 -1.3107695,1.847485 -2.4161543,4.508589 -3.1933593,7.794922 -1.55441,6.5726657 -1.5544101,14.6538964 0,21.226562 0.7772049,3.286333 1.8825899,5.947437 3.1933593,7.794922 C -3.1325899,20.255689 -1.6062411,21.298828 0,21.298828 v -0.263672 c -1.4913769,0 -2.9445667,-0.97432 -4.2265625,-2.78125 -1.2819958,-1.80693 -2.3826929,-4.438522 -3.1542969,-7.701172 -1.543208,-6.5252991 -1.543208,-14.5801688 0,-21.105468 0.771604,-3.26265 1.8723011,-5.894242 3.1542969,-7.701172 1.2819958,-1.80693 2.7351856,-2.78125 4.2265625,-2.78125 z"
         id="path3290"
         transform="rotate(18.3225)" /><path
         style="color:#000000;fill:#000000;-inkscape-stroke:none"
         d="m 0,-21.298828 c -6.0432669,0 -11.616031,4.073818 -14.625,10.660156 -3.008969,6.5863386 -3.008969,14.6910054 0,21.277344 3.008969,6.586338 8.5817331,10.660156 14.625,10.660156 v -0.263672 c -5.9243441,0 -11.409929,-3.994232 -14.384766,-10.505859 -2.974836,-6.511627 -2.974836,-14.546967 0,-21.058594 C -11.409929,-17.040924 -5.9243441,-21.035156 0,-21.035156 Z"
         id="path3292"
         transform="rotate(64.9601)" /><path
         style="color:#000000;fill:#000000;-inkscape-stroke:none"
         d="m 0,-21.298828 v 0.263672 c 4.0963746,0 7.8106421,2.340021 10.509766,6.144531 2.699123,3.80451 4.375,9.0709788 4.375,14.890625 0,5.8196462 -1.675877,11.086115 -4.375,14.890625 C 7.8106421,18.695135 4.0963746,21.035156 0,21.035156 v 0.263672 c 4.1971501,0 7.9906897,-2.39955 10.726563,-6.255859 C 13.462435,11.18666 15.148438,5.870369 15.148438,0 c 0,-5.870369 -1.686003,-11.18666 -4.421875,-15.042969 C 7.9906897,-18.899278 4.1971501,-21.298828 0,-21.298828 Z"
         id="path3294"
         transform="rotate(-44.8121)" /><path
         style="color:#000000;fill:#000000;-inkscape-stroke:none"
         d="m 0,-21.298828 v 0.263672 c 0.26772862,0 0.53648461,0.128186 0.8125,0.394531 0.2760154,0.266345 0.5522299,0.670351 0.8164062,1.197266 0.5283528,1.053829 1.0112949,2.59538 1.4160157,4.503906 C 3.8543635,-11.122402 4.3554687,-5.8374269 4.3554687,0 c 0,5.8374269 -0.5011052,11.122402 -1.3105468,14.939453 C 2.6402011,16.847979 2.157259,18.38953 1.6289062,19.443359 1.3647299,19.970274 1.0885154,20.37428 0.8125,20.640625 0.53648461,20.90697 0.26772862,21.035156 0,21.035156 v 0.263672 c 0.3520158,0 0.68771685,-0.169224 0.99609375,-0.466797 C 1.3044706,20.534459 1.5924037,20.106676 1.8652344,19.5625 2.4108957,18.474148 2.8951808,16.916024 3.3027344,14.994141 4.1178415,11.150373 4.6210937,5.8525882 4.6210937,0 c 0,-5.8525882 -0.5032522,-11.150373 -1.3183593,-14.994141 -0.4075536,-1.921883 -0.8918387,-3.480007 -1.4375,-4.568359 C 1.5924037,-20.106676 1.3044706,-20.534459 0.99609375,-20.832031 0.68771685,-21.129604 0.3520158,-21.298828 0,-21.298828 Z"
         id="path3296"
         transform="rotate(-8.73739)" /></g><g
       inkscape:label="Lines of Latitude"
       id="g3308"
       transform="matrix(0.50271508,0,0,0.50271508,16.933333,16.933333)"
       style="display:none"><path
         style="color:#000000;fill:#000000;-inkscape-stroke:none"
         d="m -3.2988281,20.775391 -0.041016,0.261718 c 2.1862934,0.347196 4.4933942,0.347196 6.6796876,0 l -0.041016,-0.261718 c -2.1577868,0.342668 -4.4398694,0.342668 -6.5976556,0 z"
         id="path3300" /><path
         style="color:#000000;fill:#000000;-inkscape-stroke:none"
         d="m -19.480469,7.9355469 -0.24414,0.099609 c 1.082077,2.6567041 3.672281,4.9039551 7.158203,6.4902351 3.4859212,1.58628 7.8722435,2.511718 12.566406,2.511718 4.6941626,0 9.0804848,-0.925438 12.566406,-2.511718 3.485922,-1.586281 6.076126,-3.833531 7.158203,-6.4902351 l -0.24414,-0.099609 C 18.434525,10.503538 15.902113,12.715507 12.457031,14.283203 9.0119491,15.850899 4.6593166,16.773438 0,16.773437 c -4.6593165,10e-7 -9.0119492,-0.922538 -12.457031,-2.490234 -3.445082,-1.567696 -5.977493,-3.779665 -7.023438,-6.3476561 z"
         id="path3302" /><path
         style="color:#000000;fill:#000000;-inkscape-stroke:none"
         d="m -19.724609,-8.0351563 c -0.960781,2.3588989 -0.606604,4.7807883 0.851562,6.9335938 1.458166,2.1528055 4.011918,4.0441812 7.457031,5.3964844 6.8902274,2.7046063 15.9418045,2.7046061 22.832032,0 3.445113,-1.3523031 5.998864,-3.2436789 7.457031,-5.3964844 1.458166,-2.1528055 1.812343,-4.5746949 0.851562,-6.9335938 l -0.24414,0.099609 c 0.928567,2.2798092 0.591822,4.592051 -0.826172,6.6855469 -1.417994,2.09349594 -3.925661,3.9609663 -7.333984,5.2988281 -6.8166471,2.6757238 -15.823979,2.6757239 -22.640626,0 -3.408323,-1.3378619 -5.91599,-3.20533213 -7.333984,-5.2988281 -1.417994,-2.093496 -1.75474,-4.4057377 -0.826172,-6.6855469 z"
         id="path3304" /><path
         style="color:#000000;fill:#000000;-inkscape-stroke:none"
         d="m -3.3398438,-21.037109 c -3.0185575,0.479364 -5.5024763,1.562051 -7.1347652,2.982422 -1.63229,1.42037 -2.413991,3.197274 -1.982422,5.019531 0.431569,1.822257 1.993184,3.3889246 4.2148435,4.5019529 2.2216591,1.1130283 5.111525,1.7753906 8.2421875,1.7753906 3.1306625,0 6.0205284,-0.6623623 8.2421875,-1.7753906 2.2216595,-1.1130283 3.7832745,-2.6796959 4.2148435,-4.5019529 0.431569,-1.822257 -0.350132,-3.599161 -1.982422,-5.019531 -1.6322889,-1.420371 -4.1162077,-2.503058 -7.1347652,-2.982422 l -0.041016,0.261718 c 2.979782,0.473207 5.4199265,1.543289 7.0019532,2.919922 1.582027,1.376633 2.304758,3.042167 1.898438,4.757813 -0.40632,1.715646 -1.897242,3.2374818 -4.0742193,4.3281247 -2.1769769,1.090643 -5.0317239,1.7460938 -8.125,1.7460938 -3.0932761,0 -5.9480231,-0.6554508 -8.125,-1.7460938 -2.1769767,-1.0906429 -3.6678987,-2.6124787 -4.0742187,-4.3281247 -0.40632,-1.715646 0.316411,-3.38118 1.898438,-4.757813 1.5820262,-1.376633 4.0221705,-2.446716 7.0019526,-2.919922 z"
         id="path3306" /></g><path
       style="fill:#000000;stroke-width:0;stroke-dasharray:none"
       d="m 15.596526,25.946602 c -2.717112,-0.05868 -5.764162,-0.347441 -8.4621125,-0.80194 -0.865068,-0.14573 -1.9632052,-0.353727 -1.9852647,-0.376027 -0.020214,-0.02043 0.2407229,-1.281222 0.2715449,-1.312044 0.015232,-0.01523 0.2689718,0.01972 0.5638668,0.07767 l 0.536173,0.105374 0.581216,-0.581216 c 0.381846,-0.381847 0.558282,-0.588221 0.514358,-0.601636 -0.03677,-0.01123 -0.604816,-0.11607 -1.26232,-0.232977 -0.657504,-0.116907 -1.2021023,-0.219198 -1.2102185,-0.227315 -0.00812,-0.0081 0.024859,-0.199929 0.073277,-0.42625 0.048419,-0.226322 0.1113975,-0.527869 0.139953,-0.670105 l 0.051919,-0.25861 0.5389615,0.109499 0.538962,0.1095 0.592587,-0.592587 0.592586,-0.592586 -0.476318,-0.07768 C 6.6600115,19.510302 5.158242,19.235522 5.13887,19.221328 c -0.012798,-0.0094 0.2612812,-1.324994 0.279404,-1.341175 0.00544,-0.0049 0.2521355,0.03753 0.5482225,0.09419 l 0.538339,0.103018 0.590814,-0.592128 c 0.324948,-0.325671 0.569497,-0.592128 0.543444,-0.592128 -0.152352,0 -2.4518968,-0.433107 -2.4872499,-0.468459 -0.019127,-0.01913 0.2372407,-1.28327 0.2660994,-1.312129 0.00978,-0.0098 0.2637115,0.02812 0.5642835,0.08423 l 0.546494,0.10202 3.6751635,-3.699049 3.675163,-3.6990504 h 3.058644 3.058645 l 3.671837,3.7002484 3.671837,3.700248 0.548176,-0.101033 c 0.301497,-0.05557 0.553589,-0.09562 0.560204,-0.08901 0.0066,0.0066 0.06454,0.259816 0.128715,0.562668 0.06418,0.302852 0.127112,0.596483 0.139853,0.652513 0.02875,0.126441 0.0055,0.132996 -1.268865,0.357688 -0.519947,0.09168 -1.013255,0.181416 -1.09624,0.199424 l -0.150881,0.03274 0.588974,0.582791 0.588974,0.58279 0.530323,-0.105131 c 0.291678,-0.05782 0.534551,-0.101415 0.539718,-0.09687 0.01696,0.01491 0.290783,1.334118 0.278894,1.343641 -0.01107,0.0089 -1.485862,0.279815 -2.1907,0.402474 l -0.334499,0.05821 0.589466,0.588158 0.589467,0.588158 0.540517,-0.109815 c 0.297285,-0.0604 0.540518,-0.105067 0.540518,-0.09926 0,0.01735 0.227645,1.144906 0.252662,1.251472 0.02172,0.09254 -0.01334,0.105392 -0.587458,0.215254 -0.33581,0.06426 -0.890712,0.163422 -1.233116,0.220359 -0.342403,0.05694 -0.637753,0.116386 -0.656331,0.132107 -0.01858,0.01572 0.223041,0.284787 0.536932,0.597925 l 0.570711,0.56934 0.539149,-0.101939 c 0.296532,-0.05607 0.550489,-0.0906 0.56435,-0.07674 0.02748,0.02748 0.288795,1.289581 0.270781,1.307822 -0.02733,0.02768 -1.227251,0.255428 -2.116376,0.401701 -2.668665,0.43903 -5.082719,0.670206 -7.96381,0.762636 -1.318034,0.04228 -1.706101,0.04424 -3.043593,0.01536 z m 3.25111,-1.399081 c 1.421653,-0.05271 2.845071,-0.149204 4.081182,-0.276657 1.089464,-0.112332 2.720788,-0.331952 2.720788,-0.366291 0,-0.0145 -0.264973,-0.290754 -0.588829,-0.613891 l -0.588829,-0.587522 -0.353085,0.04477 c -0.695666,0.0882 -2.200426,0.231188 -3.265222,0.310268 -1.373521,0.102009 -6.130325,0.117389 -7.470638,0.02416 -1.14948,-0.07996 -2.759852,-0.226958 -3.432321,-0.313311 L 9.4005505,22.698397 8.8093335,23.2883 c -0.325169,0.324448 -0.591216,0.601853 -0.591216,0.616455 0,0.0146 0.337216,0.07199 0.749369,0.127534 3.3993375,0.458091 6.7328705,0.631929 9.8801495,0.515232 z m 0.830071,-2.813535 c 1.129347,-0.05227 2.299787,-0.140008 3.389456,-0.25408 0.945319,-0.09896 2.45648,-0.301869 2.524049,-0.338911 0.037,-0.02028 -0.149525,-0.237151 -0.533352,-0.620126 l -0.590246,-0.588936 -1.057617,0.115943 c -4.294995,0.470844 -8.622725,0.470726 -12.927949,-3.69e-4 l -1.0794125,-0.11811 -0.593028,0.591609 c -0.484807,0.483648 -0.57816,0.597614 -0.511557,0.624513 0.09586,0.03871 1.6021555,0.237557 2.5255685,0.333395 2.965076,0.307737 5.893321,0.39209 8.854089,0.255056 z m -0.18446,-2.765814 c 0.532629,-0.02535 1.383451,-0.07799 1.890717,-0.11698 1.562475,-0.120102 4.182169,-0.429676 4.255356,-0.502863 0.0161,-0.0161 -0.233693,-0.292242 -0.555097,-0.613646 l -0.584372,-0.584372 -0.935391,0.102346 c -4.447902,0.486667 -8.565838,0.494293 -13.007836,0.02409 l -1.1892945,-0.125892 -0.584101,0.5841 c -0.321255,0.321255 -0.57331,0.59489 -0.560122,0.608078 0.03274,0.03274 1.091003,0.184923 2.0701885,0.297703 1.310631,0.150957 2.981457,0.281697 4.380929,0.342803 0.810433,0.03539 3.963838,0.02533 4.819023,-0.01537 z m 0.737841,-2.811523 c 1.090232,-0.07019 2.338883,-0.177812 3.251111,-0.28022 0.933764,-0.104827 2.13473,-0.273167 2.165422,-0.30353 0.01159,-0.01147 -1.389098,-1.431131 -3.112639,-3.154812 L 19.401271,9.2841211 h -2.467409 -2.46741 l -3.133711,3.1339659 c -1.7235415,1.723681 -3.1242285,3.14327 -3.1126385,3.154643 0.01159,0.01137 0.249342,0.05358 0.528338,0.09379 1.5205195,0.219148 3.5280305,0.413187 5.0495975,0.488078 0.545311,0.02684 1.12636,0.05627 1.291222,0.06541 0.566639,0.0314 4.404612,-0.01589 5.141828,-0.06335 z"
       id="path3550" /></g></svg>
