<?xml version="1.0" encoding="UTF-8" standalone="no"?>
<!-- Created with Inkscape (http://www.inkscape.org/) -->

<svg
   width="128"
   height="128"
   viewBox="0 0 33.866666 33.866666"
   version="1.1"
   id="svg135"
   xml:space="preserve"
   inkscape:version="1.2 (dc2aedaf03, 2022-05-15)"
   sodipodi:docname="player2_ico.svg"
   xmlns:inkscape="http://www.inkscape.org/namespaces/inkscape"
   xmlns:sodipodi="http://sodipodi.sourceforge.net/DTD/sodipodi-0.dtd"
   xmlns="http://www.w3.org/2000/svg"
   xmlns:svg="http://www.w3.org/2000/svg"><sodipodi:namedview
     id="namedview137"
     pagecolor="#ffffff"
     bordercolor="#000000"
     borderopacity="0.25"
     inkscape:showpageshadow="2"
     inkscape:pageopacity="0.0"
     inkscape:pagecheckerboard="0"
     inkscape:deskcolor="#d1d1d1"
     inkscape:document-units="mm"
     showgrid="false"
     inkscape:zoom="7.3192481"
     inkscape:cx="60.593655"
     inkscape:cy="62.369794"
     inkscape:window-width="3840"
     inkscape:window-height="2066"
     inkscape:window-x="-8"
     inkscape:window-y="-8"
     inkscape:window-maximized="1"
     inkscape:current-layer="layer1" /><defs
     id="defs132"><clipPath
       clipPathUnits="userSpaceOnUse"
       id="clipPath1096"><rect
         style="fill:#5c5c5c;fill-opacity:0.129568;fill-rule:evenodd;stroke:#000000;stroke-width:0.12758;stroke-dasharray:none"
         id="rect1098"
         width="81.235321"
         height="131.84389"
         x="124.65547"
         y="19.968023" /></clipPath></defs><g
     inkscape:label="Vrstva 1"
     inkscape:groupmode="layer"
     id="layer1"><g
       id="g1116"
       transform="matrix(0.25323884,0,0,0.25323884,-18.911086,-30.202355)"><path
         style="display:inline;fill:#000000;stroke-width:0.264583"
         d="m 138.45762,143.37535 c -1.79453,-0.56879 -3.9724,-2.06501 -5.0259,-3.45285 -2.55469,-3.36544 -2.85146,-7.53378 -0.81287,-11.41752 1.00313,-1.91107 2.40855,-3.19386 4.65832,-4.25186 1.58955,-0.74751 1.98608,-0.82262 4.26598,-0.80808 2.79268,0.0178 4.11886,0.42015 6.18469,1.87629 2.64933,1.86741 4.0036,4.71725 3.99845,8.41403 -0.003,2.10378 -0.0979,2.58172 -0.8154,4.1018 -2.268,4.80521 -7.46874,7.11807 -12.45327,5.53819 z"
         id="path1110" /><path
         style="display:inline;fill:#000000;stroke-width:0.264583"
         d="m 133.07648,248.7096 c -2.16712,-0.42765 -3.95854,-2.08137 -4.47455,-4.13061 -0.20169,-0.801 -0.28795,-14.06701 -0.28795,-44.28577 0,-46.78748 0.0995,-43.78868 -1.41291,-42.59904 l -0.69053,0.54317 -0.0728,19.36672 c -0.0693,18.43641 -0.097,19.41552 -0.57713,20.38253 -1.57138,3.16474 -6.55828,3.4078 -8.53838,0.41615 l -0.74683,-1.12836 -0.0728,-19.43672 c -0.0467,-12.46061 0.0246,-19.96965 0.1985,-20.92158 0.65142,-3.56515 3.31305,-6.91549 6.80968,-8.57172 l 1.79588,-0.85065 h 16.55018 16.55018 l 1.97301,0.97511 c 3.40097,1.68086 5.86748,4.76397 6.58807,8.23504 0.19694,0.94863 0.26524,7.59771 0.21552,20.97965 l -0.0728,19.59086 -0.74511,1.12575 c -1.94324,2.93598 -6.54262,2.82654 -8.32061,-0.19797 l -0.72387,-1.23136 -0.0728,-19.36673 -0.0728,-19.36672 -0.69053,-0.54317 c -1.51245,-1.18969 -1.41291,-4.20139 -1.41291,42.75165 0,31.67443 -0.0811,43.56537 -0.30201,44.30282 -1.3005,4.34067 -7.30539,5.49049 -10.21831,1.95661 -0.43006,-0.52174 -0.91783,-1.40221 -1.08393,-1.95661 -0.2168,-0.72362 -0.302,-7.88517 -0.302,-25.38511 v -24.37712 h -1.32292 -1.32292 v 24.37712 c 0,17.49994 -0.0852,24.66149 -0.302,25.38511 -0.8271,2.7606 -3.90237,4.54099 -6.84175,3.96095 z"
         id="path1104" /></g></g></svg>
