<?xml version="1.0" encoding="iso-8859-1"?>
<!-- Uploaded to: SVG Repo, www.svgrepo.com, Generator: SVG Repo Mixer Tools -->
<!DOCTYPE svg PUBLIC "-//W3C//DTD SVG 1.1//EN" "http://www.w3.org/Graphics/SVG/1.1/DTD/svg11.dtd">
<svg fill="#000000" height="800px" width="800px" version="1.1" id="Capa_1" xmlns="http://www.w3.org/2000/svg" xmlns:xlink="http://www.w3.org/1999/xlink" 
	 viewBox="0 0 439.898 439.898" xml:space="preserve">
<g>
	<path d="M228.739,65.831c0.015,0,0.028,0,0.043,0c2.055-0.004,4.025-0.361,5.547-1.004c2.982-1.261,3.423-3.197,3.42-4.238
		c-0.004-1.379-1.122-2.494-2.5-2.494c-0.002,0-0.004,0-0.007,0c-1.174,0.003-2.157,0.815-2.423,1.908
		c-0.486,0.301-1.872,0.823-4.049,0.828c-0.01,0-0.02,0-0.029,0c-2.158,0-3.536-0.514-4.021-0.811
		c-0.269-1.09-1.254-1.897-2.427-1.897c-0.002,0-0.004,0-0.007,0c-1.38,0.003-2.497,1.126-2.493,2.506
		C219.801,63.695,223.478,65.831,228.739,65.831z"/>
	<path d="M217.976,48.505c0.65,0,1.3-0.27,1.76-0.73c0.47-0.47,0.74-1.11,0.74-1.77c0-0.66-0.27-1.3-0.74-1.77
		c-0.93-0.93-2.6-0.93-3.53,0c-0.47,0.46-0.73,1.11-0.73,1.77c0,0.66,0.26,1.3,0.73,1.77
		C216.666,48.235,217.316,48.505,217.976,48.505z"/>
	<path d="M239.506,48.455c0.66,0,1.3-0.26,1.77-0.73c0.46-0.47,0.73-1.11,0.73-1.77c0-0.66-0.27-1.3-0.73-1.77
		c-0.931-0.93-2.61-0.92-3.54,0c-0.471,0.47-0.73,1.11-0.73,1.77c0,0.66,0.26,1.31,0.73,1.77
		C238.206,48.195,238.846,48.455,239.506,48.455z"/>
	<path d="M164.766,266.555c0-0.66-0.27-1.3-0.73-1.77c-0.93-0.93-2.61-0.93-3.54,0c-0.46,0.47-0.73,1.11-0.73,1.77
		c0,0.66,0.27,1.3,0.73,1.77c0.47,0.46,1.11,0.73,1.77,0.73c0.66,0,1.3-0.27,1.77-0.73
		C164.496,267.854,164.766,267.215,164.766,266.555z"/>
	<path d="M178.898,276.956c-0.002,0-0.003,0-0.005,0c-1.1,0-2.035,0.711-2.369,1.699c-0.518,0.264-1.85,0.691-3.852,0.691
		c-0.013,0-0.023,0.002-0.038,0c-0.001,0-0.001,0-0.002,0c-0.001,0-0.001,0-0.002,0c-0.002,0-0.004,0-0.006,0
		c-2.034,0.003-3.363-0.425-3.884-0.691c-0.334-0.988-1.269-1.699-2.369-1.699c-0.002,0-0.003,0-0.005,0
		c-1.381,0.003-2.497,1.125-2.495,2.505c0.002,1.013,0.455,2.884,3.457,4.026c1.455,0.554,3.323,0.858,5.265,0.858
		c0.012,0,0.024,0,0.036,0c0.003,0,0.004,0,0.007,0c0.012,0,0.024,0,0.036,0c1.942,0,3.81-0.304,5.265-0.858
		c3.003-1.143,3.455-3.013,3.458-4.026C181.396,278.081,180.279,276.958,178.898,276.956z"/>
	<path d="M181.226,264.785c-0.46,0.47-0.73,1.11-0.73,1.77c0,0.66,0.27,1.3,0.73,1.77c0.47,0.46,1.11,0.73,1.77,0.73
		c0.66,0,1.3-0.27,1.77-0.73c0.46-0.47,0.73-1.11,0.73-1.77c0-0.66-0.27-1.3-0.73-1.77
		C183.836,263.854,182.156,263.854,181.226,264.785z"/>
	<path d="M113.617,68.652c5.286,0,8.977-2.147,8.977-5.223c0-1.381-1.119-2.5-2.5-2.5c-1.175,0-2.161,0.811-2.428,1.903
		c-0.487,0.3-1.873,0.82-4.049,0.82c-2.176,0-3.563-0.52-4.049-0.819c-0.268-1.093-1.253-1.903-2.428-1.903
		c-1.381,0-2.5,1.119-2.5,2.5C104.64,66.504,108.332,68.652,113.617,68.652z"/>
	<path d="M99.766,49.195c0.66,0,1.3-0.26,1.77-0.73c0.46-0.47,0.73-1.11,0.73-1.77c0-0.65-0.27-1.3-0.73-1.77
		c-0.94-0.93-2.62-0.92-3.54,0c-0.46,0.47-0.73,1.12-0.73,1.77c0,0.66,0.27,1.31,0.73,1.77
		C98.466,48.935,99.106,49.195,99.766,49.195z"/>
	<path d="M127.466,49.195c0.66,0,1.3-0.26,1.77-0.73c0.47-0.47,0.73-1.11,0.73-1.77c0-0.66-0.26-1.3-0.73-1.77
		c-0.93-0.93-2.61-0.93-3.54,0c-0.46,0.47-0.73,1.11-0.73,1.77c0,0.66,0.27,1.3,0.73,1.77
		C126.166,48.935,126.806,49.195,127.466,49.195z"/>
	<path d="M341.921,72.833c0-1.381-1.119-2.5-2.5-2.5c-1.19,0-2.185,0.831-2.438,1.943c-0.493,0.32-1.96,0.89-4.303,0.89
		c-2.343,0-3.81-0.57-4.303-0.89c-0.253-1.112-1.248-1.943-2.438-1.943c-1.381,0-2.5,1.119-2.5,2.5c0,3.14,3.8,5.333,9.24,5.333
		C338.121,78.166,341.921,75.973,341.921,72.833z"/>
	<path d="M324.737,60.815c0-0.66-0.271-1.3-0.73-1.77c-0.94-0.93-2.6-0.93-3.54,0c-0.46,0.46-0.729,1.11-0.729,1.77
		c0,0.66,0.27,1.3,0.729,1.77c0.47,0.46,1.11,0.73,1.771,0.73c0.659,0,1.3-0.27,1.77-0.74
		C324.466,62.115,324.737,61.465,324.737,60.815z"/>
	<path d="M343.126,63.315c0.66,0,1.3-0.27,1.77-0.73c0.46-0.47,0.73-1.12,0.73-1.77c0-0.66-0.27-1.3-0.73-1.77
		c-0.93-0.93-2.609-0.93-3.54,0c-0.46,0.46-0.73,1.11-0.73,1.77c0,0.66,0.27,1.3,0.73,1.77
		C341.827,63.045,342.466,63.315,343.126,63.315z"/>
	<path d="M410.729,236.56l-24.283-109.632c-0.193-0.852-4.959-20.921-24.787-25.582l-16.327-3.918V91.63
		c10.202-0.478,17.557-3.932,21.869-10.298c8.575-12.658,1.816-32.253,0.571-35.575c-0.096-8.885-2.927-16.061-8.418-21.334
		c-9.975-9.579-25.157-9.382-26.713-9.339c-1.461-0.046-16.716-0.273-26.727,9.339c-5.491,5.273-8.322,12.448-8.418,21.334
		c-1.245,3.322-8.004,22.917,0.571,35.575c4.313,6.366,11.667,9.82,21.869,10.298v5.797l-16.316,3.916
		c-4.958,1.165-9.372,3.427-13.188,6.706c-2.226-6.143-8.635-18.797-24.468-22.392l-20.203-6.914l-0.018-8.424
		c0.634-0.727,1.246-1.494,1.833-2.309c4.783-6.634,7.405-15.405,7.386-24.697l-0.055-25.034c0.01-0.248,0.168-6.122-4.722-11.183
		C245.639,2.387,238.419,0,228.725,0c-0.041,0-0.082,0-0.123,0c-0.002,0-0.004,0-0.006,0c-9.757,0.021-17.01,2.439-21.558,7.188
		c-4.867,5.082-4.685,10.955-4.676,11.105l0.055,25.132c0.02,9.292,2.681,18.051,7.492,24.665c0.589,0.81,1.204,1.573,1.838,2.295
		l0.018,8.429l-20.172,7.001c-9.867,2.285-16.047,8.081-19.839,13.613c-0.953-1.382-3.554-4.276-3.608-4.324
		c-3.721-3.72-9.055-7.191-16.716-9.221l-20.369-9.797v-3.864c3.953-4.189,6.631-10.478,8.307-19.17
		c3.38-1.86,9.891-8.606,6.054-32.577c-1.72-10.738-5.45-20.377-31.846-20.379c0,0-0.001,0-0.001,0c-0.002,0-0.003,0-0.004,0
		c-0.001,0-0.003,0-0.004,0h-0.001C87.168,0.1,83.438,9.739,81.72,20.478c-3.837,23.97,2.674,30.715,6.053,32.576
		c1.676,8.692,4.354,14.981,8.307,19.17v3.864l-20.368,9.797c-22.469,5.951-25.066,23.953-25.283,25.923
		c0,0-21.521,110.194-21.519,110.221l1.1,12.677l-1.009,7.642c-0.406,3.125,0.429,6.222,2.351,8.719
		c1.923,2.498,4.703,4.097,7.828,4.503c0.517,0.067,1.034,0.101,1.547,0.101c2.587,0,5.089-0.847,7.173-2.452
		c2.468-1.9,4.059-4.638,4.488-7.719l2.126-9.842c0,0,7.354-13.325,7.359-13.35c0-0.003,11.241-56.822,11.241-56.822v55.137v198.8
		c-1.306,0.706-2.486,1.606-3.528,2.711c-5.49,5.816-5.026,15.02-5.003,15.41c0.076,1.323,1.171,2.356,2.496,2.356h37.5
		c1.381,0,2.5-1.119,2.5-2.5v-17.264l6.491-118.083l3.028,55.076l-0.55,1.495c-0.593,1.83-0.194,3.747,0.927,5.363l3.087,56.149
		v17.264c0,1.381,1.119,2.5,2.5,2.5h45.055c1.381,0,2.5-1.119,2.5-2.5v-47.73h4.936v47.73c0,1.381,1.119,2.5,2.5,2.5h43.481
		c0.664,0,1.301-0.264,1.769-0.734c0.469-0.47,0.732-1.107,0.731-1.771l-0.037-17.342l2.691-54.052
		c2.553-1.833,3.794-4.719,2.901-7.47l-2.229-6.05l2.388-47.956l6.248,115.495l0.037,17.387c0.003,1.378,1.121,2.495,2.5,2.495h37.5
		c1.327,0,2.424-1.038,2.496-2.363c0.021-0.396,0.468-9.75-5.087-15.605c-1.032-1.088-2.197-1.976-3.483-2.673l-0.547-170.034
		c3.437-1.241,6.062-4.13,6.918-7.766l10.943-35.948l3.844,12.501c-4.534,41.743,2.185,92.729,2.254,93.241
		c0.166,1.241,1.226,2.168,2.478,2.168h7.441c0.218,10.015,1.703,49.387,11.823,104.376c-0.319,1.921-2.383,11.839-11.571,17.473
		c-0.954,0.585-1.403,1.733-1.1,2.811c0.304,1.077,1.287,1.821,2.406,1.821h56.57c1.119,0,2.103-0.744,2.406-1.821
		c0.304-1.078-0.146-2.225-1.1-2.811c-9.191-5.636-11.252-15.56-11.57-17.476c10.119-54.988,11.605-94.359,11.822-104.374h7.441
		c1.252,0,2.312-0.927,2.478-2.168c0.416-3.097,10.025-76.327-2.632-119.274c-2.542-8.623-5.469-15.507-8.705-20.48l0.689-11.74
		c0.853-0.277,1.67-0.688,2.448-1.203l25.24,82.904c1.181,5.017,5.674,8.424,10.634,8.424c0.794,0,1.6-0.087,2.406-0.27
		C408.352,248.284,412.052,242.426,410.729,236.56z M314.931,59.758v-4.911c4.102-1.093,13.27-4.213,17.703-11.094
		c4.435,6.88,13.602,10,17.703,11.094v4.911c0,13.938-7.941,25.278-17.703,25.278S314.931,73.696,314.931,59.758z M302.214,78.537
		c-7.715-11.369,0.023-31.186,0.102-31.385c0.117-0.294,0.178-0.609,0.178-0.925c0-7.677,2.309-13.792,6.862-18.177
		c8.737-8.414,23.034-7.969,23.181-7.967c0.034,0.001,0.067-0.005,0.101-0.005c0.034,0,0.065,0.007,0.099,0.005
		c0.139-0.003,14.377-0.482,23.155,7.946c4.567,4.386,6.884,10.508,6.884,18.197c0,0.317,0.061,0.632,0.178,0.927
		c0.08,0.199,7.832,19.973,0.108,31.373c-3.349,4.941-9.31,7.654-17.729,8.095v-1.776c6.033-5.448,10.006-14.661,10.006-25.088
		v-6.889h-0.003c0.001-1.178-0.83-2.228-2.03-2.456c-0.182-0.035-18.17-3.589-18.17-15.186c0-1.381-1.119-2.5-2.5-2.5
		c-1.381,0-2.5,1.119-2.5,2.5c0,11.527-17.905,15.134-18.171,15.186c-1.199,0.229-2.03,1.278-2.029,2.455h-0.003v6.889
		c0,10.427,3.974,19.64,10.006,25.088v1.776C311.525,86.182,305.564,83.473,302.214,78.537z M323.02,101.83
		c1.124-0.27,1.917-1.275,1.917-2.431V88.241c2.405,1.16,4.996,1.795,7.697,1.795c2.701,0,5.293-0.635,7.697-1.795v11.157
		c0,1.156,0.793,2.161,1.917,2.431l11.383,2.731c-1.27,6.899-9.375,11.413-20.997,11.413c-11.623,0-19.729-4.514-20.998-11.412
		L323.02,101.83z M304.776,106.207l1.984-0.476c1.699,8.677,10.57,14.51,23.374,15.178v77.957
		c-8.104-0.004-14.729-0.059-19.736-0.604l-4.437-19.753c0.923-1.829,1.881-3.487,2.857-4.915c0.313-0.457,0.464-1.004,0.432-1.557
		l-0.854-14.491c-0.074-1.253-1.065-2.257-2.317-2.347c-2.479-0.177-4.852-2.7-6.192-6.584c-1.719-4.978-1.433-11.853,2.439-15.362
		c1.023-0.928,1.101-2.508,0.174-3.532c-0.929-1.022-2.508-1.101-3.531-0.173c-0.918,0.833-1.682,1.775-2.331,2.784l-4.677-18.873
		C295.537,109.816,299.836,107.368,304.776,106.207z M276.847,156.214l16.736-9.998l20.204,89.958
		c0.726,3.185-1.274,6.366-4.458,7.092c-3.187,0.725-6.366-1.274-7.093-4.459c-0.014-0.06-0.03-0.12-0.048-0.179L276.847,156.214z
		 M268.858,155.538l0.516,1.583c0.235,0.723,0.787,1.3,1.499,1.567c0.287,0.107,0.586,0.145,0.885,0.144l-2.899,13.088V155.538z
		 M301.541,158.829c0.638,0.377,1.292,0.703,1.976,0.926l0.629,10.67L301.541,158.829z M293.494,140.445l-20.337,12.149
		l-4.069-12.497l12.646-38.095c3.604,5.182,4.756,10.128,4.849,10.547L293.494,140.445z M240.766,80.536l0.011,0.01
		c0.006,1.033,0.646,1.996,1.68,2.35l0.368,0.126c-0.516,1.509-1.714,2.938-3.512,4.135c-2.773,1.847-6.512,2.868-10.525,2.877
		c-6.835,0.035-12.727-3.024-14.074-6.949l0.374-0.13c1.031-0.358,1.668-1.324,1.67-2.357l0.01-0.01l-0.012-5.724
		c3.652,2.503,7.723,3.836,11.965,3.836c0.013,0,0.026,0,0.039,0c0.002,0,0.004,0,0.005,0c0.001,0,0.001,0,0.001,0h0.001
		c4.256-0.009,8.335-1.36,11.987-3.885L240.766,80.536z M210.649,10.646c3.571-3.729,9.613-5.628,17.958-5.646
		c0.035-0.006,0.079-0.001,0.119,0c8.222,0,14.206,1.847,17.787,5.49c3.438,3.498,3.4,7.458,3.396,7.702l0.027,12.792
		c-1.811-0.528-3.125-1.701-4.032-3.609c-0.884-1.862-1.354-4.402-1.36-7.346c-0.003-1.379-1.121-2.495-2.5-2.495
		c-0.001,0-0.001,0-0.002,0c-0.001,0-0.002,0-0.003,0c-0.001,0-0.002,0-0.003,0c-0.139,0.001-0.273,0.02-0.406,0.042
		c-0.031,0.005-0.064,0.003-0.095,0.01c-1.14,0.235-1.995,1.245-1.993,2.454c0.002,0.965-0.976,2.077-2.616,2.976
		c-2.138,1.171-5.154,1.847-8.277,1.853c-3.14-0.007-6.142-0.656-8.284-1.817c-1.644-0.892-2.627-2-2.629-2.965
		c-0.002-1.379-1.122-2.495-2.5-2.495c0,0-0.001,0-0.002,0c-0.001,0-0.002,0-0.003,0c-0.001,0-0.002,0-0.003,0
		c-0.142,0-0.278,0.02-0.414,0.042c-0.029,0.005-0.059,0.003-0.087,0.009c-1.14,0.235-1.996,1.246-1.993,2.454
		c0.007,2.944-0.452,5.487-1.328,7.352c-0.899,1.914-2.209,3.091-4.018,3.627l-0.029-12.889
		C207.358,18.146,207.292,14.152,210.649,10.646z M207.416,43.415l-0.016-7.231c3.86-0.672,6.793-2.907,8.532-6.61
		c0.4-0.852,0.728-1.779,0.995-2.766c0.336,0.22,0.682,0.436,1.055,0.638c2.882,1.563,6.651,2.422,10.62,2.422
		c0.019,0,0.036,0,0.053,0c0.002,0,0.004,0,0.005,0c0.001,0,0.001,0,0.001,0c3.99-0.009,7.778-0.885,10.668-2.468
		c0.372-0.204,0.719-0.421,1.054-0.643c0.271,0.986,0.604,1.912,1.007,2.762c1.756,3.695,4.696,5.918,8.56,6.574l0.015,7.231
		c0.018,8.247-2.27,15.976-6.441,21.762c-3.996,5.543-9.24,8.602-14.767,8.614c-0.011,0.001-0.021,0-0.033,0
		c-5.515,0-10.759-3.036-14.771-8.55C209.755,59.381,207.434,51.662,207.416,43.415z M192.838,90.66
		c0.089-0.02,17.164-5.94,17.164-5.94c2.056,5.991,9.538,10.313,18.733,10.313c0.019,0,0.038,0,0.058,0c0.002,0,0.004,0,0.006,0
		c4.984-0.011,9.702-1.33,13.284-3.715c2.746-1.828,4.6-4.135,5.465-6.681c0,0,17.102,5.848,17.191,5.868
		c5.729,1.278,10.015,3.967,13.206,7.041l-13.482,40.609c-0.218,0.669-0.421,1.138-0.606,1.631v90.058l-34.77,0.075h-34.959v-89.972
		c0-0.061-0.125-0.781-0.138-0.817l-14.305-41.336C182.869,94.686,187.139,91.956,192.838,90.66z M217.587,278.754
		c0,6.733-2.645,11.276-7.242,12.78c2.034-8.135,1.526-20.304-10.509-26.687c0.06-0.776,0.093-1.56,0.109-2.35
		C205.369,263.103,217.587,265.895,217.587,278.754z M221.983,353.694c0.006,0.019,0.013,0.036,0.02,0.054l2.363,6.416
		c0.192,0.596-0.677,1.872-2.427,2.44c-1.752,0.567-3.204,0.043-3.396-0.552c-0.026-0.08-14.955-34.098-14.955-34.098
		c-0.389-2.032-2.022-9.951-2.289-11.152c1.29-1.208,3.23-3.4,4.653-6.623L221.983,353.694z M218.617,417.493l-23.441,0.051
		l2.186-27.876h10.322c1.381,0,2.5-1.119,2.5-2.5c0-12.892-1.457-26.883-3.212-39.067l6.86,15.626
		c0.909,2.583,3.539,4.125,6.604,4.125c0.216,0,0.435-0.011,0.654-0.026L218.617,417.493z M140.004,384.668
		c0.313-21.871,4.602-46.407,7.169-59.262h50.824c2.568,12.852,6.856,37.383,7.169,59.262H140.004z M149.025,405.189v12.38h-24.097
		l-2.752-50.071c0.868,0.236,1.729,0.356,2.558,0.356c3.065,0,5.695-1.542,6.604-4.125l6.859-15.625
		c-1.755,12.184-3.212,26.174-3.212,39.066c0,1.381,1.119,2.5,2.5,2.5h10.322L149.025,405.189z M139.218,310.178
		c1.422,3.223,3.363,5.415,4.653,6.623c-0.267,1.203-1.9,9.117-2.289,11.152l-14.865,33.864c-0.034,0.077-0.063,0.155-0.089,0.234
		c-0.192,0.595-1.676,1.206-3.396,0.553c-3.697-1.405-1.759-4.249-1.759-4.249c0.001-0.004,0.003-0.009,0.005-0.014L139.218,310.178
		z M202.684,301.309l0.088,0.24c-0.121,8.199-5.419,12.086-5.678,12.271c-0.006,0.004-1.369,0.694-1.007,2.594
		c0.002,0.01,0.001,0.019,0.004,0.029c0.017,0.072,0.349,1.5,0.875,3.964h-48.762c0.525-2.464,0.857-3.892,0.874-3.964
		c0.239-1.018-0.182-2.035-0.984-2.607c-0.006-0.005-0.01-0.01-0.017-0.015c-0.23-0.163-5.56-4.049-5.68-12.274l0.087-0.236
		c4.037-2.33,13.894-3.824,16.188-4.052c1.06,3.202,4.259,8.15,13.911,8.15c0.001,0,0.001,0,0.003,0c0,0,0.001,0,0.002,0
		c9.652,0,12.851-4.949,13.911-8.151C191.852,297.047,201.677,300.138,202.684,301.309z M134.824,291.534
		c-4.597-1.504-7.242-6.047-7.242-12.78c0-12.86,12.218-15.651,17.642-16.257c0.016,0.79,0.05,1.575,0.109,2.35
		C133.299,271.23,132.791,283.399,134.824,291.534z M148.905,243.611c-1.544-0.345-2.861-1.27-3.709-2.606
		c-0.848-1.336-1.125-2.922-0.778-4.474l19.814-90.037l16.779,9.926l-24.235,80.042c-2.577,1.91-4.797,4.307-6.586,7.101
		C149.694,243.646,149.256,243.69,148.905,243.611z M110.572,227.023v-3.901h5.997v3.901H110.572z M78.115,227.023v-3.901h27.456
		v3.901H78.115z M91.471,83.854l4.792-2.305c0.032,0.084,6.888,13.5,6.888,13.5l-12.536,5.71L91.471,83.854z M96.565,22.885
		c0.107-0.107,0.187-0.172,0.237-0.209c0.349,0.09,1.115,0.504,1.741,0.843c2.599,1.405,6.947,3.755,15.021,3.757l0.002,0
		c0.001,0,0.003,0,0.004,0c0.002,0,0.003,0,0.004,0c0,0,0.001,0,0.001,0c8.074-0.002,12.423-2.352,15.022-3.757
		c0.628-0.339,1.396-0.755,1.744-0.844c0.043,0.029,0.102,0.074,0.171,0.139c0.895,1.274,1.638,8.26,1.125,15.268H95.503
		C94.99,31.074,95.726,24.093,96.565,22.885z M134.654,43.082v3.124c0,2.248-2.06,4.076-4.594,4.076h-5.277
		c-2.532,0-4.593-1.828-4.593-4.076v-3.124H134.654z M92.487,43.082h14.464v3.124c0,2.248-2.061,4.076-4.593,4.076H97.08
		c-2.533,0-4.594-1.828-4.594-4.076V43.082z M97.08,55.281h5.277c5.29,0,9.593-4.071,9.593-9.076v-3.124h3.239v3.124
		c0,5.004,4.303,9.076,9.593,9.076h5.277c1.386,0,2.702-0.285,3.893-0.788c-3.648,15.902-10.826,19.304-20.382,19.305
		c-9.557-0.001-16.734-3.402-20.382-19.305C94.379,54.996,95.694,55.281,97.08,55.281z M136.469,99.925l-12.424-4.986
		c0,0,6.8-13.306,6.833-13.39l4.742,2.281L136.469,99.925z M113.564,78.798h0.002c0.001,0,0.003,0,0.004,0c0.002,0,0.003,0,0.004,0
		c0,0,0.001,0,0.002,0c4.899-0.001,9.027-0.882,12.483-2.732v3.99l-7.018,13.682h-10.943l-7.018-13.682v-3.99
		C104.537,77.916,108.664,78.796,113.564,78.798z M107.113,98.738h12.973l1.101,0.442l-4.176,8.137h-6.882l-4.14-8.067
		L107.113,98.738z M110.931,112.317h5.277l5.801,82.254l-8.44,10.627l-8.438-10.627L110.931,112.317z M121.569,223.122h20.681
		l-0.859,3.901h-19.822V223.122z M154.025,165.483l0.431,2.177l-0.431,1.957V165.483z M171.076,112.846
		c0.011-0.04,0.02-0.08,0.029-0.12c0.02-0.095,1.147-5.148,4.832-10.479l13.052,37.715l-4.273,12.84l-20.919-12.376L171.076,112.846
		z M189.129,175.125l-3.159-16.105c0.341,0.019,0.687-0.024,1.015-0.146c0.708-0.265,1.258-0.835,1.497-1.552l0.647-1.945V175.125z
		 M182.674,168.186l6.434,32.805c0.005,0.026,0.016,0.049,0.021,0.074v18.248H169.77l-1.019-5.149L182.674,168.186z M165.88,223.649
		l4.395,7.825c-2.555,0.205-4.982,0.743-7.246,1.59L165.88,223.649z M176.077,231.593l-4.089-7.28h17.142l0.01,12.723
		C185.474,234.106,181.036,232.203,176.077,231.593z M158.148,290.177v2.102c-1.314,0.122-2.705,0.277-4.124,0.472v-6.432
		C155.294,287.759,156.675,289.051,158.148,290.177z M172.582,295.243c0.001,0,0.001-0.001,0.003-0.001c0,0,0.001,0.001,0.002,0.001
		c3.314,0,6.492-0.727,9.434-2.056v1.376c-0.001,0.239-0.148,5.847-9.434,5.847c-0.001,0-0.001,0-0.001,0c-0.002,0-0.002,0-0.003,0
		c-8.959,0-9.413-5.28-9.434-5.847v-1.376C166.091,294.516,169.268,295.243,172.582,295.243z M187.021,292.279v-2.102
		c0.77-0.588,1.512-1.222,2.229-1.898l0.009,4.234C188.494,292.424,187.746,292.347,187.021,292.279z M189.72,280.016
		c-0.036,0.05-0.07,0.1-0.103,0.152c-4.108,6.158-10.216,10.075-17.03,10.075c-0.001,0-0.001,0-0.001,0c-0.002,0-0.002,0-0.003,0
		c-7.844,0-14.753-5.187-18.75-13.013c-0.012-0.029-0.029-0.056-0.042-0.084c-2.263-4.466-3.583-9.781-3.583-15.486
		c0-0.459,0.009-0.914,0.026-1.364h16.09c0.856,0,1.653-0.439,2.112-1.162l4.15-6.548l4.149,6.548
		c0.458,0.723,1.255,1.162,2.112,1.162h16.09c0.017,0.45,0.026,0.905,0.026,1.364C194.962,268.643,192.989,275.046,189.72,280.016z
		 M180.221,255.296l-5.523-8.715l-0.01,0.006c-0.192-0.304-0.445-0.575-0.768-0.78c-1.168-0.74-2.712-0.393-3.45,0.773l-5.523,8.715
		h-14.135c2.635-15.294,15.739-18.923,21.77-18.923c0.001,0,0.001,0,0.003,0c0,0,0.001,0,0.002,0c11.201,0,19.526,7.52,21.77,18.923
		H180.221z M166.228,111.623l-7.747,29.355c-0.286,1.082,0.182,2.221,1.144,2.79l0.078,0.046l-2.563,11.649l-3.03-15.318
		l13.303-38.189c0.571,0.8,1.071,1.589,1.5,2.353C167.067,108.086,166.352,111.063,166.228,111.623z M149.934,90.662
		c6.109,1.584,10.498,4.189,13.665,7.039l-14.436,41.442c-0.016,0.045-0.139,0.765-0.139,0.822v52.372l-5.675,25.786h-27.284v-8.026
		l10.464-13.177c0.389-0.49,0.58-1.107,0.536-1.73l-5.984-84.851l4.766-9.288l12.394,4.974c0.301,0.121,0.617,0.18,0.931,0.18
		c0.514,0,1.024-0.159,1.455-0.467c0.694-0.497,1.087-1.313,1.042-2.165l-0.911-17.271
		C140.758,86.301,149.777,90.622,149.934,90.662z M86.657,21.268c1.331-8.315,2.588-16.169,26.913-16.17
		c24.324,0.001,25.582,7.855,26.914,16.17c2.165,13.529,0.843,20.487-0.83,24.028v-4.713c0-1.381-1.119-2.5-2.5-2.5h-0.513
		c0.385-6.177,0.193-16.01-2.53-18.732c-2.917-2.918-5.674-1.427-7.89-0.229c-2.463,1.331-5.837,3.155-12.65,3.156
		c-6.812-0.001-10.186-1.825-12.65-3.156c-2.216-1.197-4.974-2.688-7.891,0.229c-2.722,2.722-2.915,12.556-2.53,18.732h-0.513
		c-1.381,0-2.5,1.119-2.5,2.5v4.712C85.814,41.753,84.492,34.795,86.657,21.268z M77.207,90.662
		c0.157-0.041,9.133-4.341,9.133-4.341l-0.926,18.291c-0.045,0.872,0.369,1.704,1.091,2.194c0.421,0.287,0.912,0.433,1.405,0.433
		c0.352,0,0.706-0.074,1.037-0.225l12.488-5.689l4.624,9.013l-5.983,84.852c-0.044,0.623,0.147,1.241,0.536,1.73l10.454,13.166
		v8.037h-32.95v-78.157c0-0.058-0.124-0.777-0.139-0.822L63.531,97.67C66.706,94.829,71.103,92.246,77.207,90.662z M55.394,112.407
		c0.036-0.368,0.585-5.272,4.321-10.491l13.316,38.229L57.37,219.313H34.439C34.439,219.313,55.386,112.488,55.394,112.407z
		 M50.688,232.262H34.817l-0.689-7.949h21.025L50.688,232.262z M47.481,244.54c-0.015,0.068-0.559,3.245-2.63,4.717
		c-1.481,1.052-3.226,1.587-5.025,1.355c-1.801-0.234-3.403-1.156-4.511-2.595c-1.108-1.439-1.589-3.224-1.355-5.02l0.757-5.735
		h14.336L47.481,244.54z M69.657,434.898c0.226-2.55,1.001-6.617,3.565-9.333c1.903-2.017,4.473-2.997,7.857-2.997h21v12.33H69.657z
		 M116.062,256.291h-0.004c-0.069-1.256-1.061-2.288-2.346-2.359c-1.396-0.085-2.558,0.981-2.633,2.359l-8.865,161.277H78.115
		V232.023h62.175l-0.754,3.425c-0.636,2.848-0.126,5.773,1.438,8.236c1.537,2.421,3.913,4.106,6.696,4.768
		c-1.113,2.751-1.87,5.762-2.225,8.974c-9.007,0.726-22.863,5.774-22.863,21.329c0,13.526,8.549,18.326,15.869,18.326
		c0.836,0,1.615-0.42,2.079-1.116c0.464-0.695,0.548-1.579,0.226-2.35c-0.284-0.683-6.352-15.711,5.35-23.416
		c0.651,3.035,1.643,5.902,2.918,8.54v14.881c-4.498,0.966-8.59,2.451-10.499,4.725c-0.2,0.191-0.938,1.578-1.039,2.068
		l-16.532,44.887L116.062,256.291z M125.062,422.568h21c1.63,0,3.098,0.24,4.381,0.712l0.058,0.742
		c-2.539,0.44-4.666,1.535-6.346,3.272c-2.31,2.389-3.183,5.458-3.513,7.604h-15.581V422.568z M145.716,434.898
		c0.284-1.315,0.861-2.916,2.034-4.128c1.282-1.325,3.061-1.969,5.439-1.969h11.929v6.098H145.716z M165.117,423.801h-9.617
		l-2.676-34.132h12.294V423.801z M192.346,389.668l-2.676,34.132h-9.617v-34.132H192.346z M180.053,434.898v-6.098h11.929
		c2.366,0,4.139,0.638,5.419,1.949c1.186,1.214,1.768,2.826,2.053,4.148H180.053z M204.527,434.898
		c-0.33-2.147-1.203-5.216-3.513-7.604c-1.68-1.737-3.807-2.832-6.346-3.272l0.095-1.213c0.847-0.169,1.751-0.266,2.717-0.27
		l21.021-0.046l0.026,12.405H204.527z M231.629,256.195c-0.068-1.263-1.069-2.298-2.36-2.362c-1.369-0.063-2.553,0.994-2.621,2.373
		l-4.197,84.3l-14.766-40.087c-0.102-0.495-0.282-0.964-0.548-1.403c-0.128-0.253-0.292-0.477-0.488-0.666
		c-2.17-2.592-7.178-4.158-12.387-5.102l-0.024-11.069c2.215-3.509,3.88-7.566,4.826-11.978c11.702,7.705,5.634,22.733,5.352,23.411
		c-0.325,0.772-0.242,1.655,0.221,2.353c0.463,0.698,1.246,1.117,2.083,1.117c7.32,0,15.869-4.799,15.869-18.326
		c0-15.554-13.856-20.603-22.863-21.329c-0.642-5.799-2.598-10.938-5.573-15.087l-0.016-7.419h34.959c0.002,0,0.004,0,0.005,0
		l34.768-0.075l0.587,182.55l-2.927,0.006c-0.012,0-0.023,0-0.035,0l0,0l-21.127,0.046l-8.724-161.251L231.629,256.195z
		 M272.959,434.898h-32.431l-0.026-12.453l21.034-0.045c0.001,0,0.002,0,0.002,0c3.328,0,5.867,0.967,7.763,2.956
		C271.947,428.134,272.734,432.302,272.959,434.898z M271.022,240.082c-0.018,0.058-0.033,0.117-0.047,0.177
		c-0.303,1.34-1.057,2.486-2.081,3.308l-0.036-11.235v-5.512l5.59,2.011L271.022,240.082z M275.906,224.04l-7.048-2.535v-26.546
		c0.019-0.062,0.044-0.12,0.058-0.184l6.096-27.52l9.136,29.711L275.906,224.04z M330.134,415.25H319.23
		c-9.764-53.662-11.222-91.97-11.439-101.832h22.343V415.25z M319.22,420.25h10.914v14.648h-18.729
		C316.489,429.591,318.479,423.465,319.22,420.25z M335.134,434.898V420.25h10.914c0.741,3.215,2.732,9.341,7.814,14.648H335.134z
		 M346.038,415.25h-10.904V313.418h22.344C357.262,323.276,355.807,361.557,346.038,415.25z M367.71,308.418h-70.153
		c-1.076-8.98-4.904-44.307-2.979-77.528l2.807,9.127c1.189,5.006,5.677,8.4,10.628,8.4c0.801,0,1.615-0.089,2.429-0.274
		c5.871-1.339,9.56-7.206,8.224-13.07l-7.115-31.681c5.557,0.468,12.579,0.477,21.085,0.477c11.27,0,20.172,0,26.264-1.128
		c1.592-0.294,5.085-0.954,7.705-3.063C375.409,238.025,369.138,296.481,367.71,308.418z M359.188,155.2
		c-1.252,0.09-2.243,1.094-2.317,2.347l-0.852,14.491c-0.032,0.552,0.119,1.1,0.432,1.556c3.083,4.514,5.905,11.045,8.393,19.392
		c-0.348,5.399-10.01,5.852-29.71,5.879v-77.956c12.803-0.668,21.674-6.501,23.372-15.179l1.997,0.479
		c16.754,3.938,20.898,21.1,21.063,21.811l20.274,91.53l-12.479,4.489l-21.216-69.684c0.764-1.215,1.434-2.579,1.962-4.109
		c2.185-6.327,1.925-15.503-3.808-20.698c-1.023-0.927-2.604-0.849-3.531,0.173c-0.927,1.023-0.85,2.604,0.174,3.532
		c3.871,3.509,4.157,10.384,2.438,15.361C364.041,152.499,361.668,155.022,359.188,155.2z M401.376,244.733
		c-5.483,0.981-7.112-4.593-7.13-4.651l-3.426-11.252l12.11-4.357l2.919,13.178C406.569,240.837,404.591,244.158,401.376,244.733z"
		/>
</g>
</svg>