<?xml version="1.0" encoding="iso-8859-1"?>
<!-- Uploaded to: SVG Repo, www.svgrepo.com, Generator: SVG Repo Mixer Tools -->
<!DOCTYPE svg PUBLIC "-//W3C//DTD SVG 1.1//EN" "http://www.w3.org/Graphics/SVG/1.1/DTD/svg11.dtd">
<svg fill="#000000" height="800px" width="800px" version="1.1" id="Capa_1" xmlns="http://www.w3.org/2000/svg" xmlns:xlink="http://www.w3.org/1999/xlink" 
	 viewBox="0 0 439.801 439.801" xml:space="preserve">
<g>
	<path d="M239.897,65.816c5.286,0,8.977-2.147,8.977-5.223c0-1.381-1.119-2.5-2.5-2.5c-1.175,0-2.161,0.811-2.429,1.903
		c-0.486,0.3-1.873,0.82-4.049,0.82c-2.177,0-3.563-0.52-4.049-0.819c-0.268-1.093-1.254-1.903-2.429-1.903
		c-1.381,0-2.5,1.119-2.5,2.5C230.919,63.668,234.61,65.816,239.897,65.816z"/>
	<path d="M230.894,47.73c0.47-0.46,0.739-1.11,0.739-1.77c0-0.65-0.27-1.3-0.739-1.76c-0.921-0.93-2.601-0.93-3.53,0
		c-0.47,0.46-0.73,1.1-0.73,1.76c0,0.66,0.261,1.31,0.73,1.77c0.46,0.47,1.109,0.73,1.77,0.73
		C229.793,48.46,230.434,48.2,230.894,47.73z"/>
	<path d="M250.663,48.46c0.66,0,1.3-0.26,1.77-0.73c0.46-0.46,0.73-1.11,0.73-1.77c0-0.65-0.27-1.3-0.73-1.77
		c-0.94-0.92-2.61-0.92-3.54,0.01c-0.471,0.46-0.73,1.11-0.73,1.76c0,0.66,0.27,1.31,0.73,1.77
		C249.363,48.2,250.003,48.46,250.663,48.46z"/>
	<path d="M202.879,187.818c-0.002,0-0.004,0-0.006,0c-1.089,0.002-2.014,0.701-2.355,1.674c-0.51,0.254-1.733,0.616-3.527,0.62
		c-0.01,0-0.02,0-0.03,0c-1.776,0-2.991-0.355-3.499-0.605c-0.344-0.97-1.27-1.664-2.357-1.664c-0.002,0-0.004,0-0.006,0
		c-1.381,0.003-2.497,1.125-2.494,2.506c0.007,2.852,3.361,4.763,8.353,4.763c0.015,0,0.029,0,0.044,0
		c1.874-0.004,3.673-0.305,5.064-0.848c2.888-1.127,3.314-2.96,3.313-3.952C205.376,188.934,204.257,187.818,202.879,187.818z"/>
	<path d="M189.713,178.37c0-0.66-0.27-1.3-0.74-1.77c-0.93-0.93-2.6-0.93-3.529,0c-0.471,0.47-0.73,1.11-0.73,1.77
		c0,0.65,0.26,1.3,0.73,1.76c0.46,0.47,1.109,0.74,1.77,0.74c0.65,0,1.3-0.27,1.76-0.74
		C189.443,179.67,189.713,179.02,189.713,178.37z"/>
	<path d="M205.003,176.6c-0.46,0.46-0.73,1.11-0.73,1.77c0,0.66,0.27,1.3,0.73,1.77c0.47,0.46,1.11,0.73,1.77,0.73
		c0.66,0,1.3-0.27,1.77-0.73c0.46-0.47,0.73-1.12,0.73-1.77c0-0.66-0.27-1.31-0.73-1.77
		C207.613,175.67,205.934,175.67,205.003,176.6z"/>
	<path d="M125.818,68.539c5.286,0,8.977-2.147,8.977-5.223c0-1.381-1.119-2.5-2.5-2.5c-1.175,0-2.161,0.811-2.429,1.903
		c-0.486,0.3-1.873,0.82-4.049,0.82c-2.177,0-3.563-0.52-4.049-0.819c-0.267-1.093-1.254-1.903-2.429-1.903
		c-1.381,0-2.5,1.119-2.5,2.5C116.84,66.391,120.531,68.539,125.818,68.539z"/>
	<path d="M111.963,49.08c0.66,0,1.3-0.26,1.771-0.73c0.46-0.46,0.729-1.11,0.729-1.77c0-0.65-0.27-1.3-0.729-1.77
		c-0.931-0.92-2.601-0.92-3.54,0.01c-0.46,0.46-0.73,1.1-0.73,1.76c0,0.66,0.271,1.31,0.73,1.77
		C110.663,48.82,111.303,49.08,111.963,49.08z"/>
	<path d="M139.673,49.08c0.65,0,1.3-0.26,1.761-0.73c0.47-0.46,0.739-1.11,0.739-1.77c0-0.65-0.27-1.3-0.739-1.76
		c-0.931-0.94-2.61-0.93-3.53,0c-0.47,0.46-0.73,1.1-0.73,1.76c0,0.66,0.261,1.31,0.73,1.77
		C138.363,48.82,139.013,49.08,139.673,49.08z"/>
	<path d="M334.167,72.72c0-1.381-1.119-2.5-2.5-2.5c-1.19,0-2.185,0.831-2.438,1.943c-0.493,0.32-1.96,0.89-4.303,0.89
		c-2.343,0-3.809-0.57-4.303-0.89c-0.253-1.112-1.248-1.943-2.438-1.943c-1.381,0-2.5,1.119-2.5,2.5c0,3.14,3.8,5.333,9.24,5.333
		C330.367,78.053,334.167,75.86,334.167,72.72z"/>
	<path d="M335.373,63.2c0.66,0,1.3-0.27,1.76-0.73c0.471-0.47,0.74-1.11,0.74-1.77c0-0.66-0.27-1.3-0.729-1.77
		c-0.931-0.93-2.61-0.93-3.54,0c-0.471,0.47-0.73,1.11-0.73,1.77c0,0.66,0.26,1.3,0.73,1.77
		C334.064,62.93,334.713,63.2,335.373,63.2z"/>
	<path d="M316.983,60.7c0-0.66-0.27-1.3-0.73-1.77c-0.93-0.93-2.609-0.93-3.54,0c-0.46,0.47-0.73,1.11-0.73,1.77
		c0,0.66,0.27,1.3,0.73,1.77c0.471,0.46,1.11,0.73,1.77,0.73c0.66,0,1.3-0.27,1.77-0.73C316.713,62,316.983,61.36,316.983,60.7z"/>
	<path d="M366.895,133.998c-0.39-0.256-1.092-0.891-1.774-1.968c-0.683-1.08-0.957-1.986-1.022-2.447
		c0.621-0.808,0.707-1.95,0.13-2.861c-0.738-1.167-2.281-1.514-3.449-0.775c-2.316,1.466-2.27,4.985,0.116,8.758
		c0.883,1.394,1.976,2.584,3.076,3.351c1.126,0.784,2.108,1.031,2.901,1.031c0.896,0,1.549-0.316,1.889-0.532
		c1.166-0.739,1.513-2.283,0.774-3.45C368.958,134.191,367.882,133.779,366.895,133.998z"/>
	<path d="M366.363,119.251c-0.46,0.46-0.73,1.11-0.73,1.769c0,0.66,0.271,1.3,0.73,1.77c0.47,0.461,1.109,0.73,1.77,0.73
		c0.66,0,1.301-0.269,1.771-0.73c0.47-0.47,0.729-1.11,0.729-1.77c0-0.66-0.26-1.3-0.729-1.769
		C368.963,118.32,367.303,118.32,366.363,119.251z"/>
	<path d="M376.363,136.51c0.649,0,1.3-0.26,1.76-0.73c0.47-0.47,0.74-1.11,0.74-1.77c0-0.66-0.271-1.3-0.74-1.77
		c-0.92-0.93-2.6-0.93-3.53,0c-0.47,0.47-0.729,1.11-0.729,1.77c0,0.66,0.26,1.3,0.729,1.77
		C375.053,136.251,375.703,136.51,376.363,136.51z"/>
	<path d="M397.411,109.02c-2.368-3.738-7.336-4.852-11.074-2.485c-1.166,0.739-1.513,2.283-0.774,3.45
		c0.74,1.167,2.284,1.513,3.45,0.775c1.407-0.894,3.28-0.473,4.174,0.936c0.893,1.41,0.472,3.283-0.939,4.175l-5.108,3.235
		c-0.145-0.249-0.271-0.506-0.426-0.75c-3.938-6.218-10.686-9.93-18.056-9.93c-0.317,0-0.633,0.02-0.949,0.034
		c-3.947-3.556-8.567-5.991-13.757-7.211l-16.327-3.918v-5.797c10.202-0.478,17.556-3.932,21.868-10.298
		c8.576-12.658,1.817-32.253,0.572-35.575c-0.096-8.885-2.927-16.061-8.418-21.333c-9.98-9.583-25.179-9.382-26.717-9.339
		c-1.481-0.045-16.722-0.266-26.725,9.339c-5.491,5.273-8.322,12.448-8.418,21.333c-1.245,3.322-8.004,22.917,0.572,35.575
		c4.313,6.366,11.666,9.82,21.868,10.298v5.797l-13.787,3.309c-1.068-1.729-4.415-5.603-4.553-5.711
		c-3.718-3.686-9.065-7.163-16.767-9.177l-20.226-6.97v-8.503c5.668-6.485,9.274-16.138,9.274-26.907l-0.002-25.035
		c0.01-0.248,0.181-6.121-4.698-11.193C256.913,2.403,249.654,0,239.897,0s-17.017,2.403-21.574,7.142
		c-4.879,5.072-4.708,10.945-4.7,11.096V43.37c0,10.769,3.606,20.421,9.274,26.907v8.503l-20.226,6.97
		c-9.473,2.478-15.424,7.091-19.169,11.761l-4.405-3.736c-3.872-3.877-8.087-6.062-15.423-7.988l-20.367-9.796v-3.863
		c3.953-4.189,6.632-10.479,8.308-19.171c3.379-1.86,9.891-8.606,6.054-32.577C155.948,9.642,152.219,0.002,125.822,0
		c0,0,0,0-0.001,0c0,0-0.003,0-0.005,0c-0.001,0-0.002,0-0.004,0h-0.001C99.414,0.002,95.686,9.642,93.967,20.38
		c-3.837,23.97,2.674,30.715,6.053,32.576c1.676,8.692,4.354,14.982,8.308,19.171v3.863l-20.368,9.797
		C65.49,91.738,62.894,109.74,62.676,111.71c0,0-21.516,110.097-21.514,110.144c0.002,0.026-0.006,0.052-0.004,0.078l1.1,12.674
		l-1.01,7.644c-0.406,3.126,0.429,6.222,2.352,8.719c1.923,2.498,4.703,4.097,7.828,4.503c0.518,0.067,1.033,0.101,1.547,0.101
		c2.587,0,5.089-0.847,7.173-2.452c2.469-1.9,4.06-4.638,4.489-7.719l2.125-9.841l7.089-12.621c0.028-0.05,0.047-0.103,0.071-0.154
		c0.023-0.049,11.44-57.398,11.44-57.398v55.137v198.8c-1.306,0.705-2.485,1.606-3.528,2.71c-5.49,5.816-5.026,15.021-5.004,15.41
		c0.076,1.323,1.171,2.356,2.496,2.356h37.5c1.381,0,2.5-1.119,2.5-2.5v-17.264l6.49-118.083l6.492,118.083v17.264
		c0,1.381,1.119,2.5,2.5,2.5h96.586c1.381,0,2.5-1.119,2.5-2.5v-17.257l3.914-75.39c0,0,4.008,0.035,4.174,0l3.916,75.39v17.257
		c0,1.381,1.119,2.5,2.5,2.5h37.5c1.325,0,2.42-1.033,2.496-2.356c0.023-0.389,0.486-9.594-5.004-15.41
		c-1.043-1.105-2.224-2.006-3.529-2.711V237.376c0-0.005-0.002-0.009-0.002-0.014c0-0.004,0.002-0.009,0.002-0.014V180.82
		c0.754-0.204,1.721-0.486,2.883-0.866l3.512,17.757c-10.287,43.42-1.488,110.48-1.092,113.441c0.166,1.241,1.226,2.167,2.478,2.167
		h7.442c0.217,10.015,1.703,49.387,11.82,104.376c-0.319,1.921-2.382,11.839-11.57,17.473c-0.954,0.586-1.403,1.733-1.1,2.811
		c0.304,1.077,1.287,1.821,2.406,1.821h56.572c1.119,0,2.102-0.744,2.406-1.821c0.304-1.078-0.146-2.225-1.1-2.811
		c-9.191-5.636-11.252-15.56-11.57-17.475c10.117-54.988,11.603-94.359,11.82-104.374h7.442c1.252,0,2.311-0.927,2.478-2.167
		c0.415-3.097,10.024-76.327-2.633-119.275c-1.353-4.592-2.819-8.698-4.374-12.27c21.475-0.491,33.006-13.405,33.157-13.579
		c0.31-0.356,0.511-0.792,0.582-1.258c1.896-12.355-2.018-22.169-3.622-25.54c0.741-1.506,1.33-3.098,1.707-4.777
		c0.809-3.6,0.665-7.261-0.354-10.704l5.771-3.655C398.661,117.728,399.777,112.76,397.411,109.02z M368.658,113.425
		c5.646,0,10.816,2.843,13.831,7.605c2.337,3.689,3.096,8.067,2.14,12.328c-0.957,4.261-3.516,7.894-7.204,10.23
		c-2.623,1.661-5.642,2.539-8.729,2.539c-5.645,0-10.815-2.843-13.83-7.604c-4.822-7.617-2.55-17.737,5.067-22.559
		C362.554,114.302,365.571,113.425,368.658,113.425z M297.439,180.095c3.837,2.679,9.765,4.026,16.638,4.026
		c2.662,0,5.474-0.227,8.35-0.632v15.278c-19.698-0.027-29.362-0.479-29.711-5.878C294.176,187.989,295.759,183.704,297.439,180.095
		z M289.273,187.198l-1.776-8.979c1.774-0.711,3.749-1.572,5.896-2.613c0.079,0.116,0.164,0.235,0.257,0.361
		c0.04,0.055,0.093,0.129,0.14,0.192C292.193,179.324,290.682,183.016,289.273,187.198z M298.506,174.21
		c-0.247-0.391-0.451-0.684-0.626-0.926c3.465-1.899,7.234-4.224,11.193-7.058c1.936,3.89,7.841,5.846,9.068,6.212
		c2.105,0.686,4.924,1.015,7.649,1.332c2.714,0.316,5.521,0.643,7.186,1.273c0.442,0.168,0.871,0.307,1.309,0.464
		C317.368,181.453,301.742,179.321,298.506,174.21z M349.444,139.014l-8.81-1.771c0.009-0.191,0.027-0.375,0.026-0.573
		c0.061-0.938,0.148-5.133-2.839-8.194c-2.102-2.154-5.104-3.13-8.951-2.919c8.676-8.27,17.957-10.254,24.053-10.159
		C347.145,121.738,345.641,131.107,349.444,139.014z M329.004,130.552c2.39-0.16,4.145,0.311,5.219,1.395
		c1.637,1.653,1.448,4.404,1.448,4.413c-0.009,0.087-0.012,0.174-0.011,0.261c0.046,3.356-2.359,4.798-6.614,7.057
		c-2.379,1.263-4.838,2.569-6.78,4.57c-5.558,5.725-11.102,10.331-16.307,14.024l-4.215-11.783
		c8.667-4.434,15.195-9.83,16.954-12.541C323.099,131.164,328.8,130.571,329.004,130.552z M332.511,160.264
		c3.257,0.876,10.341,1.552,17.728,1.496l-1.559,12.324c-4.292-0.645-8.934-1.825-13.933-3.717
		c-2.242-0.849-5.361-1.212-8.378-1.564c-2.481-0.288-5.047-0.587-6.734-1.137c-2.699-0.814-5.914-2.643-6.178-3.873
		c-0.084-0.396,0.377-1.088,1.196-1.814c0.133-0.107,0.266-0.216,0.398-0.324C320.233,157.452,326.768,158.719,332.511,160.264z
		 M327.427,182.602c4.83-1.047,9.747-2.643,14.474-4.79c2.935,0.714,9.804,1.608,10.214,1.64c1.788,3.73,3.475,8.24,5.024,13.438
		c-0.349,5.398-10.012,5.851-29.711,5.878V182.602z M352.788,156.75c-7.508,0.249-15.371-0.344-18.979-1.314
		c-2.516-0.677-6.095-1.634-9.993-1.656c0.679-0.669,1.357-1.348,2.037-2.048c1.394-1.436,3.406-2.504,5.538-3.636
		c2.753-1.462,5.944-3.168,7.772-6.047l14.518,2.918c3.948,3.913,9.291,6.161,15.014,6.161c1.426,0,2.84-0.15,4.225-0.431
		c-0.858,0.923-2.307,2.089-4.768,3.404c-3.036,1.622-8.887,2.415-15.022,2.639C353.015,156.736,352.901,156.737,352.788,156.75z
		 M350.8,105.633l1.997,0.479c3.068,0.721,5.896,1.948,8.459,3.645c-0.959,0.356-1.892,0.784-2.797,1.278
		c-2.257-0.519-5.627-0.814-9.629-0.368C349.78,109.127,350.445,107.442,350.8,105.633z M324.927,84.938
		c-9.762,0-17.703-11.34-17.703-25.278v-4.911c4.102-1.093,13.269-4.213,17.703-11.094c4.435,6.88,13.601,10,17.702,11.094v4.911
		C342.629,73.599,334.688,84.938,324.927,84.938z M294.506,78.439c-7.714-11.369,0.023-31.186,0.102-31.385
		c0.117-0.294,0.178-0.609,0.178-0.925c0-7.677,2.309-13.792,6.862-18.176c8.738-8.413,23.038-7.972,23.182-7.967
		c0.034,0.002,0.066-0.006,0.101-0.006c0.033,0,0.064,0.007,0.099,0.006c0.139-0.005,14.378-0.482,23.156,7.946
		c4.567,4.386,6.884,10.509,6.884,18.197c0,0.316,0.061,0.631,0.178,0.925c0.079,0.199,7.815,20.016,0.102,31.385
		c-3.35,4.936-9.31,7.645-17.723,8.085v-1.777c6.031-5.449,10.004-14.661,10.004-25.087v-6.889h-0.004
		c0-1.176-0.83-2.225-2.026-2.456c-0.182-0.035-18.172-3.631-18.172-15.186c0-1.381-1.119-2.5-2.5-2.5c-1.381,0-2.5,1.119-2.5,2.5
		c0,11.527-17.905,15.134-18.171,15.186c-1.199,0.229-2.03,1.278-2.029,2.456h-0.003v6.889c0,10.427,3.973,19.639,10.005,25.087
		v1.777C303.815,86.084,297.855,83.375,294.506,78.439z M315.312,101.732c1.124-0.27,1.917-1.275,1.917-2.431V88.144
		c2.405,1.16,4.997,1.795,7.698,1.795c2.701,0,5.293-0.636,7.698-1.795v11.158c0,1.156,0.793,2.161,1.917,2.431l11.382,2.731
		c-1.268,6.899-9.374,11.413-20.997,11.413c-11.623,0-19.727-4.514-20.997-11.413L315.312,101.732z M292.879,101.354
		c0.156,0.207,0.313,0.415,0.457,0.621c-0.309,0.1-0.623,0.194-0.924,0.302L292.879,101.354z M265.066,107.141
		c0.454,0,0.907-0.124,1.307-0.369c0.709-0.435,1.155-1.193,1.191-2.023l0.727-16.754l7.293,2.513
		c0.061,0.021,0.124,0.04,0.186,0.056c6.008,1.559,10.343,4.107,13.481,6.879l-4.453,8.821
		c-9.264,6.966-13.307,19.001-13.654,20.441c-0.824,2.515-12.223,38.477,3.717,53.08v55.062h-32.463V109.54l5.172-10.123
		l16.46,7.498C264.36,107.066,264.714,107.141,265.066,107.141z M239.897,103.446l-4.179-8.179c-0.021-0.054-0.031-0.11-0.056-0.164
		c-0.063-0.139-0.142-0.266-0.226-0.387l-7.54-14.757v-5.175c3.6,2.497,7.678,3.916,12,3.916c4.322,0,8.4-1.419,12-3.916v5.175
		l-7.538,14.754c-0.085,0.122-0.164,0.25-0.228,0.39c-0.024,0.054-0.035,0.109-0.056,0.164L239.897,103.446z M263.359,86.295
		l-0.63,14.534l-12.882-5.868l5.787-11.328L263.359,86.295z M222.003,10.528C225.593,6.86,231.613,5,239.897,5
		s14.304,1.86,17.893,5.528c3.431,3.506,3.386,7.466,3.381,7.71v12.776c-3.563-1.096-5.369-4.762-5.369-10.952
		c0-1.381-1.119-2.5-2.5-2.5h-0.001H253.3c-1.381,0-2.5,1.119-2.5,2.5c0,1.96-4.247,4.807-10.903,4.807
		c-6.656,0-10.903-2.847-10.903-4.807c0-1.381-1.119-2.5-2.5-2.5h-0.001h-0.001c-1.381,0-2.5,1.119-2.5,2.5
		c0,6.191-1.807,9.856-5.37,10.953V18.162C218.617,17.995,218.572,14.034,222.003,10.528z M218.622,43.37v-7.216
		c4.819-0.817,8.115-4.066,9.55-9.346c2.863,1.9,6.982,3.061,11.725,3.061s8.861-1.161,11.725-3.061
		c1.435,5.28,4.73,8.529,9.55,9.346v7.216c0,16.724-9.544,30.331-21.274,30.331C228.166,73.7,218.622,60.094,218.622,43.37z
		 M224.158,83.633l5.787,11.328l-12.882,5.868l-0.63-14.534L224.158,83.633z M204.023,90.564c0.063-0.016,0.125-0.035,0.187-0.056
		l7.293-2.513l0.727,16.754c0.036,0.83,0.482,1.588,1.191,2.023c0.399,0.245,0.852,0.369,1.307,0.369
		c0.353,0,0.706-0.075,1.036-0.225l16.46-7.498l5.172,10.123v108.285c-2.447-4.334-6.96-9.534-14.971-11.403l-12.947-4.494v-0.626
		c0.73-0.601,1.426-1.262,2.088-1.974h18.863c1.381,0,2.5-1.119,2.5-2.5c0-22.858-5.219-39.24-15.513-48.691
		c-4.061-3.729-8.263-5.739-11.814-6.83l-15.255-43.736C193.522,94.731,197.918,92.148,204.023,90.564z M220.623,236.619
		c-0.456,0.404-0.748,0.96-0.823,1.565l-1.608,13.036h-42.398l-1.608-13.036c-0.075-0.604-0.367-1.161-0.823-1.565l-14.13-12.523
		c0.208-0.623,0.515-1.426,0.936-2.322c0.067-0.116,0.128-0.235,0.176-0.362c1.772-3.605,5.412-8.542,12.465-10.146
		c0.09-0.02,10.273-3.549,10.273-3.549c0.523,5.016,2.911,12.291,13.911,12.291c10.989,0,13.384-7.262,13.91-12.292
		c0,0,10.185,3.53,10.274,3.55c9.096,2.069,12.529,9.692,13.576,12.83L220.623,236.619z M222.707,255.453l12.813,36.896
		l-0.063,1.208c-5.469-16.272-11.868-27.826-13.642-30.884L222.707,255.453z M217.574,256.22l-0.554,4.49h-40.057l-0.554-4.49
		H217.574z M166.189,270.104l5.088-14.651l0.891,7.219c-0.94,1.621-3.184,5.637-5.896,11.467v-3.43
		C166.272,270.5,166.238,270.299,166.189,270.104z M154.74,226.796l0.147,0.129h-21.071v-3.901h20.514
		c-0.241,0.773-0.355,1.279-0.376,1.382C153.767,225.287,154.068,226.199,154.74,226.796z M147.163,309.647
		c-0.031,0.09-0.058,0.182-0.078,0.275c-0.184,0.821-0.677,1.522-1.388,1.974c-0.712,0.452-1.556,0.598-2.379,0.414
		c-0.821-0.184-1.522-0.676-1.974-1.387c-0.451-0.711-0.599-1.555-0.425-2.334l18.701-77.265c0.039-0.033,0.082-0.062,0.119-0.098
		l9.598,8.507l0.559,4.531c-0.035,0.076-0.076,0.146-0.105,0.227L147.163,309.647z M179.853,151.911
		c8.008-7.422,17.107-6.847,17.193-6.848c0.054-0.001,8.915-0.654,16.988,6.758c8.856,8.131,13.518,22.424,13.872,42.508H215.16
		c2.989-5.375,4.672-12.408,4.672-20.595c0-1.441-0.041-2.849-0.122-4.184c-0.08-1.327-1.183-2.341-2.495-2.339v-0.009H203.53
		l-4.307-8.521c-0.623-1.233-2.124-1.726-3.359-1.104c-0.495,0.25-0.864,0.647-1.097,1.107l-0.007-0.003l-4.307,8.521H176.77v0.01
		c-1.336,0.003-2.415,1.011-2.495,2.338c-0.081,1.335-0.122,2.743-0.122,4.184c0,8.187,1.683,15.22,4.672,20.595h-12.746
		C166.078,166.936,176.879,154.667,179.853,151.911z M166.272,163.784v-4.585l1.015,2.161
		C166.932,162.146,166.596,162.958,166.272,163.784z M196.992,200.746c-7.713,0-11.537-5.609-11.702-5.76
		c-4.182-5.202-6.138-13.248-6.138-21.252c0-0.519,0.011-1.026,0.021-1.532h12.818c0.943,0,1.806-0.531,2.231-1.373l2.769-5.479
		l2.768,5.479c0.426,0.842,1.288,1.373,2.232,1.373h12.818c0.011,0.506,0.021,1.014,0.021,1.532c0,8.004-1.956,16.05-6.138,21.252
		C208.529,195.137,204.705,200.746,196.992,200.746z M206.012,206.005c-0.214,4.772-1.572,9.002-9.02,9.002
		c-7.437,0-8.802-4.217-9.02-9.002c0.746-0.313,1.283-0.96,1.463-1.732c2.319,0.96,4.848,1.474,7.557,1.474s5.237-0.513,7.557-1.474
		C204.729,205.045,205.267,205.692,206.012,206.005z M184.508,201.303v0.626l-12.947,4.494c-1.97,0.459-3.721,1.126-5.289,1.926
		v-9.019h16.148C183.082,200.041,183.777,200.702,184.508,201.303z M182.21,112.309c0.033-0.344,0.516-4.661,3.639-9.491
		c0.007-0.008,0.016-0.013,0.022-0.021c0.136-0.16,0.24-0.335,0.328-0.514c0.105-0.154,0.221-0.309,0.331-0.464l13.354,38.335
		c-1.443-0.134-2.467-0.106-2.895-0.084c-1.602-0.084-11.384-0.229-20.42,8.068c-0.587,0.539-1.151,1.106-1.705,1.689
		C174.864,149.827,182.202,112.39,182.21,112.309z M180.689,101.681c-2.744,4.9-3.345,9.132-3.443,10.03l-8.176,41.685l-2.651-5.645
		l12.419-47.64L180.689,101.681z M151.419,106.106c0.514,0,1.023-0.159,1.454-0.467c0.694-0.497,1.087-1.313,1.042-2.165
		l-0.911-17.271c0,0,9.02,4.321,9.177,4.361c5.982,1.552,9.434,3.15,12.45,5.859l-13.278,50.94c-0.008,0.029-0.081,0.596-0.081,0.63
		v63.847c-2.135,1.982-3.686,4.183-4.793,6.184h-28.166v-8.026l10.464-13.177c0.389-0.49,0.58-1.107,0.536-1.73l-5.984-84.851
		l4.767-9.288l12.394,4.974C150.788,106.047,151.105,106.106,151.419,106.106z M119.36,98.64h12.975l1.1,0.442l-4.176,8.137h-6.882
		l-4.14-8.068L119.36,98.64z M113.327,79.959v-3.99c3.456,1.85,7.584,2.73,12.483,2.732h0.002c0.002,0,0.003,0,0.004,0
		c0.002,0,0.004,0,0.004,0c0.002,0,0.002,0,0.002,0c4.9-0.002,9.027-0.882,12.484-2.732v3.99l-7.018,13.682h-10.944L113.327,79.959z
		 M123.179,112.219h5.276l5.801,82.254l-8.439,10.627l-8.438-10.627L123.179,112.219z M128.816,223.024v3.901h-5.997v-3.901H128.816
		z M147.867,83.732l0.849,16.095l-12.424-4.986l6.739-13.138c0.041-0.08,0.062-0.168,0.094-0.252L147.867,83.732z M146.9,46.108
		c0,2.248-2.061,4.076-4.594,4.076h-5.277c-2.532,0-4.593-1.828-4.593-4.076v-3.123H146.9V46.108z M107.75,37.984
		c-0.513-7.008,0.224-13.989,1.062-15.197c0.107-0.107,0.187-0.172,0.237-0.209c0.349,0.09,1.114,0.504,1.741,0.843
		c2.599,1.405,6.947,3.755,15.021,3.757c0,0,0.001,0,0.002,0c0.002,0,0.003,0,0.004,0c0.002,0,0.004,0,0.004,0
		c0.002,0,0.002,0,0.002,0c8.075-0.002,12.424-2.352,15.022-3.757c0.628-0.339,1.396-0.755,1.743-0.844
		c0.043,0.029,0.103,0.074,0.171,0.139c0.896,1.274,1.638,8.26,1.126,15.268H107.75z M102.234,37.984c-1.381,0-2.5,1.119-2.5,2.5
		v4.713c-1.673-3.541-2.995-10.499-0.829-24.027c1.331-8.315,2.588-16.169,26.912-16.17c24.325,0.001,25.583,7.855,26.914,16.17
		c2.166,13.53,0.843,20.488-0.83,24.028v-4.714c0-1.381-1.119-2.5-2.5-2.5h-0.513c0.386-6.177,0.192-16.01-2.53-18.732
		c-2.919-2.92-5.675-1.427-7.891-0.23c-2.463,1.331-5.837,3.155-12.65,3.156c-6.812-0.001-10.186-1.825-12.649-3.156
		c-2.215-1.197-4.974-2.687-7.891,0.23c-2.722,2.722-2.915,12.556-2.53,18.732H102.234z M104.734,42.984h14.464v3.123
		c0,2.248-2.061,4.076-4.593,4.076h-5.277c-2.533,0-4.594-1.828-4.594-4.076V42.984z M105.435,54.396
		c1.191,0.503,2.507,0.788,3.893,0.788h5.277c5.289,0,9.593-4.071,9.593-9.076v-3.123h3.239v3.123c0,5.004,4.304,9.076,9.593,9.076
		h5.277c1.387,0,2.701-0.285,3.893-0.788c-3.649,15.902-10.826,19.304-20.383,19.305C116.26,73.699,109.084,70.298,105.435,54.396z
		 M103.719,83.756l4.791-2.305c0.031,0.084,0.052,0.172,0.093,0.252l6.795,13.248l-12.535,5.71L103.719,83.756z M59.729,244.442
		c-0.015,0.068-0.645,3.326-2.631,4.717c-1.488,1.042-3.225,1.589-5.025,1.355c-1.801-0.234-3.402-1.156-4.511-2.595
		c-1.107-1.439-1.589-3.224-1.355-5.02l0.757-5.735h14.338L59.729,244.442z M62.935,232.164h-15.87l-0.689-7.949H67.4
		L62.935,232.164z M69.617,219.215H46.687c0,0,20.946-106.825,20.954-106.906c0.035-0.368,0.584-5.271,4.321-10.49l13.316,38.231
		L69.617,219.215z M75.777,97.572c3.176-2.842,7.572-5.425,13.677-7.008c0.157-0.041,9.132-4.34,9.132-4.34l-0.926,18.29
		c-0.044,0.872,0.37,1.704,1.092,2.194c0.421,0.287,0.912,0.433,1.405,0.433c0.353,0,0.706-0.074,1.036-0.225l12.488-5.689
		l4.624,9.013l-5.983,84.852c-0.044,0.624,0.147,1.241,0.536,1.73l10.454,13.166v8.037h-32.95v-78.157
		c0-0.055-0.122-0.773-0.139-0.822L75.777,97.572z M117.818,223.024v3.901H90.362v-3.901H117.818z M114.326,434.801H81.904
		c0.227-2.55,1.001-6.617,3.565-9.334c1.903-2.017,4.474-2.997,7.856-2.997h21V434.801z M128.309,256.193h-0.004
		c-0.068-1.256-1.061-2.288-2.346-2.359c-1.399-0.091-2.558,0.98-2.634,2.359l-8.865,161.277H90.362V231.925h63.97l-18.281,75.53
		c-0.476,2.125-0.095,4.309,1.072,6.148c1.167,1.839,2.98,3.113,5.104,3.587c0.598,0.133,1.198,0.199,1.796,0.199
		c1.529,0,3.03-0.433,4.353-1.272c1.795-1.139,3.052-2.894,3.553-4.953l9.343-26.901v1.671
		c-5.639,14.651-11.258,34.661-11.258,56.272c0,1.381,1.119,2.5,2.5,2.5h8.758v72.764h-24.097L128.309,256.193z M164.5,434.801
		h-27.191v-12.33h21c4.711,0,7.926,1.94,9.799,5.905C166.37,430.437,165.195,432.782,164.5,434.801z M166.272,419.358v-74.651h1.133
		c0.355,29.041,6.816,68.281,8.628,78.744c-1.501,0.317-2.841,0.874-4.042,1.587C170.561,422.547,168.63,420.636,166.272,419.358z
		 M172.404,344.707h16.619l0.021,78.442h-7.989C179.416,413.75,172.768,373.93,172.404,344.707z M169.895,434.801
		c0.606-1.31,1.514-2.821,2.805-4.073c0.014-0.013,0.026-0.026,0.04-0.039c1.505-1.444,3.527-2.534,6.226-2.54h10.08l0.002,6.651
		H169.895z M199.938,434.801h-5.293c0.746-2.69,2.298-6.72,5.295-9.427L199.938,434.801z M199.941,419.315
		c-2.474,1.296-4.402,3.141-5.896,5.159l-0.021-79.767h5.938L199.941,419.315z M204.938,434.801l0.002-6.651h10.08
		c5.055,0.011,7.758,3.813,9.071,6.651H204.938z M204.941,423.149l0.02-78.442h16.619c-0.363,29.223-7.012,69.043-8.65,78.442
		H204.941z M228.895,433.284c-1.738-3.996-5.21-8.624-10.942-9.833c0.052-0.3,0.109-0.633,0.169-0.98h10.773V433.284z
		 M229.022,417.471h-10.066c2.496-15.265,7.318-47.78,7.624-72.764h6.221L229.022,417.471z M155.04,339.707
		c0.76-35.84,17.538-67.556,21.159-73.997h41.586c3.621,6.441,20.4,38.157,21.159,73.997H155.04z M239.703,308.234l0.174-3.343
		l0.047,0.134l0.274,5.292C240.038,309.617,239.871,308.926,239.703,308.234z M240.397,291.148c-0.002-0.005-0.004-0.01-0.005-0.015
		l-16.199-46.642c-0.028-0.08-0.069-0.151-0.105-0.227l0.559-4.531l9.676-8.576l18.733,77.389c0.184,0.821,0.036,1.665-0.415,2.376
		c-0.451,0.712-1.152,1.204-1.975,1.387c-0.82,0.184-1.666,0.037-2.378-0.414c-0.711-0.451-1.204-1.152-1.388-1.974
		c-0.021-0.093-0.047-0.185-0.078-0.275L240.397,291.148z M245.504,316.044c0.035,0.023,0.068,0.051,0.105,0.074
		c1.322,0.839,2.823,1.272,4.352,1.272c0.597,0,1.198-0.066,1.795-0.199c2.125-0.475,3.938-1.748,5.105-3.587
		c1.167-1.839,1.548-4.022,1.063-6.19l-16.353-67.566h33.291v177.623h-24.09L245.504,316.044z M283.327,434.801h-32.429v-12.33h21
		c3.374,0,5.94,0.975,7.841,2.98C282.333,428.186,283.105,432.252,283.327,434.801z M278.188,176.083
		c-13.734-12.641-2.248-47.979-2.238-48.012c0.013-0.046,5.409-18.487,21.118-21.961l1.986-0.477
		c1.698,8.677,10.57,14.51,23.373,15.178v4.244c-1.552,1.755-3.07,3.699-4.532,5.871c-0.064,0.095-0.109,0.197-0.159,0.297
		c-1.109,1.108-2.206,2.421-3.232,4.004c-1.404,2.166-7.999,7.458-16.662,11.614c-0.017,0.006-0.034,0.007-0.052,0.013
		c-0.176,0.063-0.338,0.146-0.489,0.242c-1.333,0.626-2.713,1.222-4.129,1.776c-1.599-4.023-2.895-12.079,1.372-15.653
		c1.059-0.886,1.197-2.463,0.312-3.521c-0.887-1.059-2.463-1.198-3.523-0.312c-6.425,5.381-5.072,15.487-2.889,21.118
		c-2.609,0.778-5.291,1.374-7.985,1.696c-1.371,0.164-2.35,1.408-2.186,2.779c0.165,1.37,1.403,2.348,2.779,2.186
		c3.948-0.472,7.855-1.459,11.576-2.756c0.042-0.012,0.081-0.03,0.123-0.044c1.518-0.532,3.004-1.114,4.449-1.736l4.48,12.525
		C290.379,172.396,281.282,175.253,278.188,176.083z M322.427,434.801h-18.729c5.083-5.308,7.073-11.433,7.815-14.648h10.915
		V434.801z M322.427,415.152h-10.905c-9.762-53.662-11.221-91.97-11.438-101.833h22.343V415.152z M346.156,434.801h-18.73v-14.648
		h10.915C339.083,423.368,341.073,429.493,346.156,434.801z M338.332,415.152h-10.905V313.32h22.343
		C349.554,323.179,348.1,361.459,338.332,415.152z M358.895,199.58c8.807,38.349,2.535,96.804,1.108,108.74h-70.152
		c-1.429-11.939-7.7-70.383,1.108-108.74c2.62,2.107,6.112,2.767,7.703,3.062c6.092,1.128,14.994,1.128,26.265,1.128
		c11.271,0,20.173,0,26.265-1.128C352.782,202.347,356.275,201.688,358.895,199.58z M386.588,163.261
		c-2.393,2.448-13.324,12.343-32.491,11.366c-0.146-0.021-0.294-0.026-0.442-0.021l1.645-13.004
		c6.072-0.345,11.806-1.274,15.209-3.092c4.771-2.549,7.606-5.37,8.425-8.383c0.177-0.649,0.237-1.239,0.235-1.769
		c0.313-0.177,0.627-0.352,0.932-0.545c1.628-1.031,3.071-2.269,4.338-3.653C385.904,148.156,387.681,155.061,386.588,163.261z"/>
</g>
</svg>