<svg xmlns="http://www.w3.org/2000/svg" width="512" height="512" viewBox="0 0 512 512">
  <defs>
    <linearGradient id="bg" x1="0" y1="0" x2="1" y2="1">
      <stop offset="0" stop-color="#0ea5e9"/>
      <stop offset="1" stop-color="#0369a1"/>
    </linearGradient>
    <radialGradient id="ball" cx="0.38" cy="0.32" r="0.85">
      <stop offset="0" stop-color="#ffffff"/>
      <stop offset="0.55" stop-color="#f4f9fc"/>
      <stop offset="0.82" stop-color="#dcebf5"/>
      <stop offset="1" stop-color="#b9d4e6"/>
    </radialGradient>
    <radialGradient id="hole" cx="0.4" cy="0.35" r="0.9">
      <stop offset="0" stop-color="#0a5c8a"/>
      <stop offset="1" stop-color="#053754"/>
    </radialGradient>
  </defs>
  <rect width="512" height="512" rx="115" fill="url(#bg)"/>
  <g transform="rotate(-6 256 256)">
    <!-- hřiště -->
    <rect x="116" y="114" width="292" height="304" rx="78" fill="none" stroke="#083f5e" stroke-opacity="0.35" stroke-width="20"/>
    <rect x="110" y="104" width="292" height="304" rx="78" fill="none" stroke="#ffffff" stroke-width="20"/>
    <path d="M 122 256 H 390" stroke="#bae6fd" stroke-width="13" stroke-linecap="round"/>
    <!-- soupeř: X -->
    <path d="M 308 278 L 352 322 M 352 278 L 308 322" stroke="#bae6fd" stroke-width="16" stroke-linecap="round"/>
    <!-- spoluhráč: O -->
    <circle cx="216" cy="164" r="23" fill="none" stroke="#bae6fd" stroke-width="14"/>
    <!-- přihrávka -->
    <path d="M 222 306 C 270 268 296 234 322 206" fill="none" stroke="#ffffff" stroke-width="13" stroke-linecap="round" stroke-dasharray="1 27"/>
    <polygon points="360,172 345,211 321,187" fill="#ffffff"/>
    <!-- míček -->
    <circle cx="180" cy="354" r="52" fill="#083f5e" fill-opacity="0.35"/>
    <circle cx="176" cy="344" r="52" fill="url(#ball)"/>
    <circle cx="169.7" cy="337.7" r="10.8" fill="url(#hole)"/>
    <ellipse cx="208.9" cy="352.8" rx="8.2" ry="11" fill="url(#hole)" transform="rotate(15 208.9 352.8)"/>
    <ellipse cx="184.8" cy="376.9" rx="8.2" ry="11" fill="url(#hole)" transform="rotate(75 184.8 376.9)"/>
    <ellipse cx="151.9" cy="368.1" rx="8.2" ry="11" fill="url(#hole)" transform="rotate(135 151.9 368.1)"/>
    <ellipse cx="143.1" cy="335.2" rx="8.2" ry="11" fill="url(#hole)" transform="rotate(195 143.1 335.2)"/>
    <ellipse cx="167.2" cy="311.1" rx="8.2" ry="11" fill="url(#hole)" transform="rotate(255 167.2 311.1)"/>
    <ellipse cx="200.1" cy="319.9" rx="8.2" ry="11" fill="url(#hole)" transform="rotate(315 200.1 319.9)"/>
    <ellipse cx="209.9" cy="377.9" rx="3.8" ry="11" fill="url(#hole)" transform="rotate(45 209.9 377.9)"/>
    <ellipse cx="163.6" cy="390.3" rx="3.8" ry="11" fill="url(#hole)" transform="rotate(105 163.6 390.3)"/>
    <ellipse cx="129.7" cy="356.4" rx="3.8" ry="11" fill="url(#hole)" transform="rotate(165 129.7 356.4)"/>
    <ellipse cx="142.1" cy="310.1" rx="3.8" ry="11" fill="url(#hole)" transform="rotate(225 142.1 310.1)"/>
    <ellipse cx="188.4" cy="297.7" rx="3.8" ry="11" fill="url(#hole)" transform="rotate(285 188.4 297.7)"/>
    <ellipse cx="222.3" cy="331.6" rx="3.8" ry="11" fill="url(#hole)" transform="rotate(345 222.3 331.6)"/>
  </g>
</svg>
