<?xml version="1.0" encoding="iso-8859-1"?>
<!-- Uploaded to: SVG Repo, www.svgrepo.com, Generator: SVG Repo Mixer Tools -->
<!DOCTYPE svg PUBLIC "-//W3C//DTD SVG 1.1//EN" "http://www.w3.org/Graphics/SVG/1.1/DTD/svg11.dtd">
<svg fill="#000000" height="800px" width="800px" version="1.1" id="Capa_1" xmlns="http://www.w3.org/2000/svg" xmlns:xlink="http://www.w3.org/1999/xlink" 
	 viewBox="0 0 394.233 394.233" xml:space="preserve">
<g>
	<path d="M276.669,65.452c-3.342-1.369-6.185-3.835-7.616-7.152c-0.936-2.17-1.437-4.528-1.437-6.95V6c0-3.314-2.686-6-6-6h-129
		c-3.314,0-6,2.686-6,6v45.35c0,2.422-0.5,4.78-1.437,6.95c-1.431,3.316-4.273,5.782-7.615,7.151
		c-22.238,9.111-37.948,30.977-37.948,56.456v150.523c0,25.256,15.436,46.962,37.364,56.214c5.406,2.281,9.266,7.363,9.606,13.221
		c0.02,0.337,0.029,46.366,0.029,46.366c0,3.314,2.686,6,6,6h129c3.314,0,6-2.686,6-6c0,0,0.01-46.029,0.029-46.366
		c0.34-5.858,4.2-10.94,9.606-13.221c21.928-9.252,37.364-30.958,37.364-56.214V121.908
		C314.616,96.429,298.906,74.563,276.669,65.452z M255.616,37.22h-117v-7h117V37.22z M255.616,12v6.22h-117V12H255.616z
		 M138.616,51.35v-2.13h117v2.13c0,3.334,0.564,6.598,1.626,9.677c-1.2-0.071-2.407-0.117-3.624-0.117H140.615
		c-1.217,0-2.424,0.046-3.624,0.117C138.053,57.948,138.616,54.684,138.616,51.35z M138.616,357.12h117v7h-117V357.12z
		 M138.616,382.233v-6.113h117v6.113H138.616z M255.616,342.883v2.237h-117v-2.237c0-3.294-0.547-6.521-1.584-9.567
		c1.186,0.069,118.994,0.068,120.187-0.001C256.18,336.364,255.616,339.587,255.616,342.883z M302.616,272.432
		c0,27.018-21.98,48.998-48.998,48.998H140.615c-27.018,0-48.998-21.98-48.998-48.998V121.908c0-27.018,21.98-48.998,48.998-48.998
		h113.004c27.018,0,48.998,21.98,48.998,48.998V272.432z"/>
	<path d="M252.44,79.539H141.794c-23.547,0-42.704,19.157-42.704,42.704v149.854c0,23.547,19.157,42.704,42.704,42.704H252.44
		c23.547,0,42.704-19.157,42.704-42.704V122.243C295.143,98.696,275.987,79.539,252.44,79.539z M283.143,272.097
		c0,16.93-13.773,30.704-30.704,30.704H141.794c-16.93,0-30.704-13.773-30.704-30.704V122.243c0-16.93,13.773-30.704,30.704-30.704
		H252.44c16.93,0,30.704,13.773,30.704,30.704V272.097z"/>
	<path d="M223.009,138.757c-9.502,0-18.524,3.125-25.892,8.889c-7.368-5.765-16.39-8.889-25.892-8.889
		c-11.252,0-21.83,4.382-29.786,12.338S129.1,169.629,129.1,180.881s4.382,21.83,12.335,29.783l51.438,51.439
		c1.171,1.171,2.707,1.757,4.243,1.757s3.071-0.586,4.243-1.757l51.09-51.09l0.346-0.346c7.956-7.956,12.338-18.534,12.338-29.786
		s-4.382-21.83-12.338-29.786S234.26,138.757,223.009,138.757z M244.307,202.185l-47.19,47.19l-47.193-47.193
		c-5.69-5.689-8.823-13.254-8.823-21.301s3.133-15.611,8.823-21.301c5.689-5.69,13.254-8.823,21.301-8.823
		s15.611,3.133,21.301,8.823l0.349,0.349c2.343,2.343,6.142,2.343,8.485,0l0.349-0.349c5.69-5.69,13.254-8.823,21.301-8.823
		c8.047,0,15.612,3.133,21.301,8.823c5.69,5.689,8.823,13.254,8.823,21.301S250,196.493,244.307,202.185z"/>
</g>
</svg>