<?xml version="1.0" encoding="iso-8859-1"?>
<!-- Generator: Adobe Illustrator 19.0.0, SVG Export Plug-In . SVG Version: 6.00 Build 0)  -->
<svg version="1.1" id="Layer_1" xmlns="http://www.w3.org/2000/svg" xmlns:xlink="http://www.w3.org/1999/xlink" x="0px" y="0px"
	 viewBox="0 0 512 512" style="enable-background:new 0 0 512 512;" xml:space="preserve">
<polygon style="fill:#EEEEEE;" points="449.362,8.17 340.426,503.83 503.83,503.83 503.83,8.17 "/>
<polygon style="fill:#DCDCDC;" points="394.894,8.17 285.957,503.83 449.362,503.83 449.362,8.17 "/>
<polygon style="fill:#EEEEEE;" points="394.894,8.17 394.894,394.894 319.648,449.362 362.213,8.17 "/>
<polygon style="fill:#FFFFFF;" points="362.213,8.17 362.213,394.894 285.957,503.83 8.17,503.83 8.17,8.17 "/>
<polygon style="fill:#B9B9B9;" points="394.894,394.894 285.957,503.83 285.957,394.894 "/>
<path d="M503.83,0h-21.787c-4.513,0-8.17,3.658-8.17,8.17s3.657,8.17,8.17,8.17h13.617V495.66h-13.617
	c-4.513,0-8.17,3.658-8.17,8.17s3.657,8.17,8.17,8.17h21.787c4.513,0,8.17-3.658,8.17-8.17V8.17C512,3.658,508.343,0,503.83,0z"/>
<path d="M400.688,400.653c1.492-1.538,2.369-3.534,2.376-5.734V8.17c0-4.512-3.657-8.17-8.17-8.17H8.17C3.657,0,0,3.658,0,8.17
	v495.66c0,3.095,1.748,5.924,4.516,7.307C6.241,512,6.241,512,18.702,512h234.574c4.513,0,8.17-3.658,8.17-8.17
	s-3.657-8.17-8.17-8.17c-2.178,0-194.62,0-236.936,0V16.34h370.383v370.383H285.957c-4.513,0-8.17,3.658-8.17,8.17V503.83
	c0,3.305,1.99,6.283,5.044,7.548c1.011,0.418,2.072,0.622,3.124,0.622c2.126,0,4.216-0.83,5.78-2.393
	C291.735,509.607,400.672,400.671,400.688,400.653z M294.128,484.106v-81.042h81.042L294.128,484.106z"/>
<path d="M449.362,0h-21.787c-4.513,0-8.17,3.658-8.17,8.17s3.657,8.17,8.17,8.17h13.617V495.66H331.467
	c-4.513,0-8.17,3.658-8.17,8.17s3.657,8.17,8.17,8.17h117.895c4.513,0,8.17-3.658,8.17-8.17V8.17C457.532,3.658,453.875,0,449.362,0
	z"/>
<path d="M94.774,220.596h213.515c4.513,0,8.17-3.658,8.17-8.17s-3.657-8.17-8.17-8.17H94.774c-4.513,0-8.17,3.658-8.17,8.17
	S90.261,220.596,94.774,220.596z"/>
<path d="M94.774,177.021h213.515c4.513,0,8.17-3.658,8.17-8.17s-3.657-8.17-8.17-8.17H94.774c-4.513,0-8.17,3.658-8.17,8.17
	S90.261,177.021,94.774,177.021z"/>
<path d="M94.774,133.447h213.515c4.513,0,8.17-3.658,8.17-8.17c0-4.512-3.657-8.17-8.17-8.17H94.774c-4.513,0-8.17,3.658-8.17,8.17
	C86.604,129.789,90.261,133.447,94.774,133.447z"/>
<path d="M316.46,256c0-4.512-3.657-8.17-8.17-8.17H94.774c-4.513,0-8.17,3.658-8.17,8.17s3.657,8.17,8.17,8.17h213.515
	C312.803,264.17,316.46,260.512,316.46,256z"/>
<path d="M94.774,291.404c-4.513,0-8.17,3.658-8.17,8.17c0,4.512,3.657,8.17,8.17,8.17h131.813c4.513,0,8.17-3.658,8.17-8.17
	c0-4.512-3.657-8.17-8.17-8.17H94.774z"/>
<g>
</g>
<g>
</g>
<g>
</g>
<g>
</g>
<g>
</g>
<g>
</g>
<g>
</g>
<g>
</g>
<g>
</g>
<g>
</g>
<g>
</g>
<g>
</g>
<g>
</g>
<g>
</g>
<g>
</g>
</svg>
