<?xml version="1.0" encoding="iso-8859-1"?>
<!-- Generator: Adobe Illustrator 16.0.0, SVG Export Plug-In . SVG Version: 6.00 Build 0)  -->
<!DOCTYPE svg PUBLIC "-//W3C//DTD SVG 1.1//EN" "http://www.w3.org/Graphics/SVG/1.1/DTD/svg11.dtd">
<svg version="1.1" id="Capa_1" xmlns="http://www.w3.org/2000/svg" xmlns:xlink="http://www.w3.org/1999/xlink" x="0px" y="0px"
	 width="921.6px" height="921.6px" viewBox="0 0 921.6 921.6" style="enable-background:new 0 0 921.6 921.6;" xml:space="preserve"
	>
<g>
	<g>
		<circle cx="189.25" cy="808.6" r="113"/>
		<circle cx="515.449" cy="808.6" r="113"/>
		<circle cx="515.449" cy="113" r="113"/>
		<path d="M125.35,354l-42.9,42.899c-5.1,5.101-5.1,13.4,0,18.5l45.4,45.4l-45.4,45.4c-5.1,5.1-5.1,13.399,0,18.5l42.9,42.899
			c5.1,5.101,13.4,5.101,18.5,0l45.4-45.399l45.4,45.399c5.101,5.101,13.4,5.101,18.5,0l42.9-42.899c5.1-5.101,5.1-13.4,0-18.5
			l-45.4-45.4l45.4-45.4c5.1-5.1,5.1-13.399,0-18.5L253.15,354c-5.1-5.1-13.399-5.1-18.5,0l-45.4,45.399L143.85,354
			C138.75,348.9,130.45,348.9,125.35,354z"/>
		<path d="M622.25,396.899L579.35,354c-5.1-5.1-13.4-5.1-18.5,0l-45.4,45.399L470.051,354c-5.102-5.1-13.401-5.1-18.5,0
			l-42.9,42.899c-5.1,5.101-5.1,13.4,0,18.5l45.4,45.4l-45.4,45.4c-5.1,5.1-5.1,13.399,0,18.5l42.9,42.899
			c5.1,5.101,13.399,5.101,18.5,0l45.398-45.399l45.4,45.399c5.1,5.101,13.4,5.101,18.5,0l42.9-42.899c5.1-5.101,5.1-13.4,0-18.5
			l-45.4-45.4l45.4-45.4C627.35,410.3,627.35,402,622.25,396.899z"/>
		<path d="M670.35,754c-10.5,8.8-12.5,24.399-4,35.1c5,6.2,12.201,9.4,19.6,9.4c5.701,0,11.301-1.9,16-5.8
			c89.801-75,143.4-199.101,143.4-331.9c0-45.9-6.299-90.8-18.6-133.7c-10.199-35.3-24.301-68.5-42-98.9l29.1-24.7
			c4.1-3.5,2.9-10.2-2.199-12L693.85,149.3c-5.1-1.8-10.299,2.6-9.299,7.9l22.299,123.1c1,5.4,7.4,7.6,11.5,4.1l29.5-26.3
			c13.6,24.8,22.6,54.5,30.801,82.9c11.1,38.3,16.699,78.6,16.699,119.8C795.35,578.7,748.65,688.3,670.35,754z"/>
	</g>
</g>
<g>
</g>
<g>
</g>
<g>
</g>
<g>
</g>
<g>
</g>
<g>
</g>
<g>
</g>
<g>
</g>
<g>
</g>
<g>
</g>
<g>
</g>
<g>
</g>
<g>
</g>
<g>
</g>
<g>
</g>
</svg>
