<?xml version="1.0" encoding="UTF-8" standalone="no"?>
<!-- Uploaded to SVGRepo https://www.svgrepo.com -->

<svg
   version="1.1"
   id="Layer_1"
   x="0px"
   y="0px"
   viewBox="0 0 32 32"
   style="enable-background:new 0 0 32 32;"
   xml:space="preserve"
   xmlns="http://www.w3.org/2000/svg"
   xmlns:svg="http://www.w3.org/2000/svg"><defs
   id="defs24" />
<g
   id="upload--02">
	<g
   id="upload--02_1_">
		<path
   d="M31,20.36h-8v-0.72h7.64V1.36H1.36v18.28H9v0.721H1c-0.199,0-0.36-0.161-0.36-0.36V1c0-0.199,0.161-0.36,0.36-0.36h30    c0.199,0,0.36,0.161,0.36,0.36v19C31.36,20.199,31.199,20.36,31,20.36z"
   id="path14" />
		<polygon
   points="16.36,31 15.64,31 15.64,7.869 10.254,13.254 9.746,12.746 16,6.491 22.255,12.746 21.745,13.254 16.36,7.869       "
   id="polygon16" />
	</g>
</g>
<rect
   id="_Transparent_Rectangle"
   style="fill:none;"
   width="32"
   height="32" />
</svg>
