<?xml version="1.0" encoding="iso-8859-1"?>
<!-- Uploaded to: SVG Repo, www.svgrepo.com, Generator: SVG Repo Mixer Tools -->
<!DOCTYPE svg PUBLIC "-//W3C//DTD SVG 1.1//EN" "http://www.w3.org/Graphics/SVG/1.1/DTD/svg11.dtd">
<svg fill="#000000" height="800px" width="800px" version="1.1" id="Capa_1" xmlns="http://www.w3.org/2000/svg" xmlns:xlink="http://www.w3.org/1999/xlink" 
	 viewBox="0 0 457.9 457.9" xml:space="preserve">
<path d="M457.9,228.95c0-15.51-11.45-28.395-26.341-30.649V164.95c0-19.299-15.701-35-35-35c-10.188,0-19.371,4.378-25.773,11.349
	c-5.33-12.536-17.769-21.349-32.227-21.349c-19.299,0-35,15.701-35,35v43H154.34v-43c0-19.299-15.701-35-35-35
	c-14.458,0-26.897,8.813-32.227,21.349c-6.402-6.971-15.585-11.349-25.773-11.349c-19.299,0-35,15.701-35,35v33.347
	c-6.514,0.975-12.522,3.99-17.262,8.73C3.224,212.88,0,220.666,0,228.95c0,15.51,11.449,28.394,26.34,30.649v33.351
	c0,19.299,15.701,35,35,35c10.188,0,19.371-4.378,25.773-11.349c5.33,12.536,17.768,21.349,32.227,21.349c19.299,0,35-15.701,35-35
	v-43h149.22v43c0,19.299,15.701,35,35,35c14.458,0,26.897-8.813,32.227-21.349c6.402,6.971,15.585,11.349,25.773,11.349
	c19.299,0,35-15.701,35-35v-33.347c6.513-0.975,12.521-3.99,17.263-8.731C454.677,245.019,457.9,237.233,457.9,228.95z M12,228.95
	c0-5.079,1.976-9.851,5.563-13.438c2.46-2.46,5.484-4.14,8.776-4.967v36.803C18.113,245.262,12,237.816,12,228.95z M61.34,315.95
	c-12.683,0-23-10.318-23-23v-128c0-12.682,10.317-23,23-23s23,10.318,23,23v128C84.34,305.632,74.022,315.95,61.34,315.95z
	 M142.34,302.95c0,12.682-10.317,23-23,23s-23-10.318-23-23v-148c0-12.682,10.317-23,23-23s23,10.318,23,23V302.95z M154.34,247.95
	v-38h149.22v38H154.34z M361.56,302.95c0,12.682-10.317,23-23,23s-23-10.318-23-23v-148c0-12.682,10.317-23,23-23s23,10.318,23,23
	V302.95z M419.56,292.95c0,12.682-10.317,23-23,23s-23-10.318-23-23v-128c0-12.682,10.317-23,23-23s23,10.318,23,23V292.95z
	 M440.338,242.387c-2.461,2.461-5.486,4.141-8.778,4.968v-36.803c8.227,2.086,14.341,9.532,14.341,18.398
	C445.9,234.028,443.925,238.8,440.338,242.387z"/>
</svg>