<?xml version="1.0" encoding="iso-8859-1"?>
<!-- Uploaded to: SVG Repo, www.svgrepo.com, Generator: SVG Repo Mixer Tools -->
<svg fill="#000000" height="800px" width="800px" version="1.1" id="Layer_1" xmlns="http://www.w3.org/2000/svg" xmlns:xlink="http://www.w3.org/1999/xlink" 
	 viewBox="0 0 512 512" xml:space="preserve">
<g>
	<g>
		<g>
			<path d="M408.044,293.786h-32.221c-4.61,0-8.348,3.738-8.348,8.348s3.738,8.348,8.348,8.348h32.233
				c-1.995,36.811-17.269,72.444-44.291,99.467c-27.591,27.59-63.242,42.332-99.467,44.247v-32.362c0-4.61-3.738-8.348-8.348-8.348
				s-8.348,3.738-8.348,8.348v32.336c-36.148-2.021-71.728-16.811-99.301-44.386c-27.573-27.575-42.365-63.153-44.386-99.301h32.163
				c4.61,0,8.348-3.738,8.348-8.348s-3.738-8.348-8.348-8.348h-32.189c1.914-36.226,16.657-71.876,44.248-99.467
				c27.591-27.591,63.241-42.332,99.467-44.248v35.692c0,4.61,3.738,8.348,8.348,8.348s8.348-3.738,8.348-8.348v-35.665
				c36.148,2.021,71.728,16.813,99.302,44.386c3.26,3.26,8.546,3.26,11.805,0c3.26-3.26,3.26-8.546,0-11.805
				c-65.958-65.958-173.207-66.034-239.075-0.165c-32.492,32.492-48.926,75.053-49.333,117.759c-0.137,0.599-0.216,1.22-0.216,1.861
				c0,0.649,0.081,1.277,0.221,1.883c0.529,42.622,17.021,85.101,49.493,117.572c33.012,33.012,76.357,49.52,119.69,49.517
				c43.248-0.002,86.485-16.451,119.386-49.352c31.861-31.861,49.008-74.505,49.395-118.042c0.098-0.512,0.154-1.039,0.154-1.578
				c0-0.516-0.053-1.021-0.144-1.512c-0.186-19.834-3.847-39.806-11.207-58.98c-1.652-4.304-6.48-6.452-10.785-4.802
				c-4.304,1.652-6.453,6.481-4.802,10.785C403.948,262.655,407.182,278.225,408.044,293.786z"/>
			<path d="M437.953,150.771c1.631,1.635,3.77,2.453,5.91,2.453c2.129,0,4.258-0.809,5.887-2.429l17.966-17.868
				c1.572-1.563,2.458-3.686,2.461-5.902c0.004-2.216-0.873-4.343-2.438-5.912l-22.217-22.275c-3.255-3.263-8.54-3.271-11.805-0.016
				c-3.265,3.256-3.271,8.542-0.016,11.805l16.314,16.356l-6.128,6.095l-37.409-37.505l6.127-6.095l1.467,1.47
				c3.255,3.263,8.54,3.271,11.805,0.016c3.265-3.256,3.271-8.542,0.016-11.805l-7.354-7.373c-3.252-3.261-8.531-3.271-11.797-0.023
				L388.775,89.63c-1.572,1.563-2.458,3.686-2.461,5.902c-0.004,2.216,0.873,4.343,2.438,5.912l9.749,9.775l-20.371,20.26
				c-23.619-16.912-50.875-29.062-80.352-35.031v-42.86h27.443c4.61,0,8.348-3.738,8.348-8.348V8.348
				c0-4.61-3.738-8.348-8.348-8.348H186.675c-4.61,0-8.348,3.738-8.348,8.348v36.893c0,4.61,3.738,8.348,8.348,8.348h27.444v14.71
				c0,4.61,3.738,8.348,8.348,8.348s8.348-3.738,8.348-8.348v-14.71h50.27v40.185c-8.244-0.986-16.629-1.507-25.135-1.507
				c-45.508,0-87.68,14.525-122.123,39.168l-20.328-20.216l9.749-9.775c1.565-1.569,2.442-3.695,2.438-5.912
				c-0.004-2.216-0.889-4.339-2.461-5.902l-17.966-17.867c-3.265-3.247-8.544-3.238-11.797,0.023l-7.354,7.373
				c-3.256,3.265-3.249,8.549,0.016,11.805c3.263,3.256,8.549,3.249,11.805-0.016l1.467-1.47l6.127,6.095l-37.409,37.505
				l-6.128-6.095l16.314-16.356c3.256-3.265,3.249-8.549-0.016-11.805c-3.265-3.257-8.55-3.25-11.805,0.016l-22.217,22.275
				c-1.565,1.569-2.442,3.695-2.438,5.912c0.004,2.216,0.889,4.339,2.461,5.902l17.966,17.868c1.628,1.62,3.757,2.429,5.887,2.429
				c2.139,0,4.28-0.818,5.91-2.453l9.766-9.791l18.364,18.265c-34.963,37.495-56.389,87.737-56.389,142.89
				C45.79,417.854,140.067,512,255.949,512s210.159-94.146,210.159-209.867c0-55.127-21.406-105.347-56.34-142.837l18.418-18.317
				L437.953,150.771z M222.467,36.893h-27.444V16.696h121.853v20.197h-27.443H222.467z M95.722,129.274l6.103-6.12l18.718,18.617
				c-2.208,1.862-4.381,3.764-6.51,5.714L95.722,129.274z M449.413,302.133c0,106.515-86.787,193.171-193.464,193.171
				S62.486,408.648,62.486,302.133s86.787-193.171,193.464-193.171S449.413,195.619,449.413,302.133z M397.918,147.536
				c-2.128-1.95-4.3-3.853-6.507-5.717l18.765-18.664l6.103,6.12L397.918,147.536z"/>
			<path d="M255.949,217.896c-4.61,0-8.348,3.738-8.348,8.348v75.89c0,3.376,2.032,6.419,5.15,7.711
				c1.034,0.429,2.119,0.637,3.196,0.637c2.17,0,4.304-0.847,5.9-2.441l35.741-35.69c3.262-3.258,3.267-8.543,0.009-11.805
				c-3.258-3.263-8.544-3.267-11.805-0.009l-21.495,21.464v-55.757C264.297,221.634,260.56,217.896,255.949,217.896z"/>
		</g>
	</g>
</g>
</svg>