<?xml version="1.0" ?><!-- Uploaded to: SVG Repo, www.svgrepo.com, Generator: SVG Repo Mixer Tools -->
<svg width="800px" height="800px" viewBox="0 0 64 64" data-name="Layer 1" id="Layer_1" xmlns="http://www.w3.org/2000/svg"><defs><style>.cls-1{fill:#231f20;}</style></defs><title/><path class="cls-1" d="M37.25,19.55H26.75a1,1,0,0,1-1-1V12.13a1,1,0,0,1,1-1h10.5a1,1,0,0,1,1,1v6.42A1,1,0,0,1,37.25,19.55Zm-9.5-2h8.5V13.13h-8.5Z"/><path class="cls-1" d="M43.68,52.87H20.32a1,1,0,0,1-1-1V15.55a1,1,0,0,1,1-1h6.43a1,1,0,0,1,1,1v2h8.5v-2a1,1,0,0,1,1-1h6.43a1,1,0,0,1,1,1V51.87A1,1,0,0,1,43.68,52.87Zm-22.36-2H42.68V16.55H38.25v2a1,1,0,0,1-1,1H26.75a1,1,0,0,1-1-1v-2H21.32Z"/><path class="cls-1" d="M25.91,46.76a3.31,3.31,0,1,1,3.3-3.3A3.3,3.3,0,0,1,25.91,46.76Zm0-4.61a1.31,1.31,0,1,0,1.3,1.31A1.31,1.31,0,0,0,25.91,42.15Z"/><path class="cls-1" d="M26.93,42.69a1,1,0,0,1-1-1c0-.38-.14-8.6,4.28-13.39l-1.88-.57a1,1,0,0,1,.57-1.91l3.57,1.07a1,1,0,0,1,.69.78,1,1,0,0,1-.37,1c-5,3.83-4.86,12.91-4.86,13a1,1,0,0,1-1,1Z"/><path class="cls-1" d="M32.31,32.94a1,1,0,0,1-1-1l-.13-4.07a1,1,0,0,1,1-1,1,1,0,0,1,1,1l.13,4.08a1,1,0,0,1-1,1Z"/><path class="cls-1" d="M38.34,44.55a1,1,0,0,1-.71-.29l-3.54-3.54a1,1,0,0,1,0-1.42,1,1,0,0,1,1.41,0l3.55,3.54a1,1,0,0,1,0,1.42A1,1,0,0,1,38.34,44.55Z"/><path class="cls-1" d="M34.8,44.55a1,1,0,0,1-.71-.29,1,1,0,0,1,0-1.42l3.54-3.54a1,1,0,1,1,1.42,1.42L35.5,44.26A1,1,0,0,1,34.8,44.55Z"/><path class="cls-1" d="M39,26.71a1,1,0,0,1-.71-.29l-3.54-3.54a1,1,0,0,1,1.42-1.42L39.69,25a1,1,0,0,1,0,1.42A1,1,0,0,1,39,26.71Z"/><path class="cls-1" d="M35.44,26.71a1,1,0,0,1-.71-.29,1,1,0,0,1,0-1.42l3.54-3.54a1,1,0,1,1,1.42,1.42l-3.54,3.54A1,1,0,0,1,35.44,26.71Z"/></svg>